<?xml version="1.0" encoding="UTF-8"?>
<svg width="26px" height="30px" viewBox="0 0 26 30" version="1.1" xmlns="http://www.w3.org/2000/svg" xmlns:xlink="http://www.w3.org/1999/xlink">
    <!-- Generator: Sketch 49.3 (51167) - http://www.bohemiancoding.com/sketch -->
    <title>Group 3</title>
    <desc>Created with Sketch.</desc>
    <defs></defs>
    <g id="A-Migration-Engineer" stroke="none" stroke-width="1" fill="none" fill-rule="evenodd">
        <g id="A2_Migration-Engineer-V2" transform="translate(-47.000000, -303.000000)" fill="#FFFFFF" fill-rule="nonzero">
            <g id="Group-3" transform="translate(47.000000, 303.000000)">
                <path d="M6.66258904,0.96984375 L6.66258904,6.5625 L0.996726027,6.5625 L0.996726027,8.50212891 L7.64512785,8.50212891 C8.18780365,8.50212891 8.62766667,8.06794922 8.62766667,7.53228516 L8.62766667,0.969785156 L6.66258904,0.969785156 L6.66258904,0.96984375 Z" id="Shape"></path>
                <path d="M18.911379,0 L7.64512785,0 C7.38441553,0 7.13456621,0.102128906 6.95048858,0.284179687 L0.302086758,6.84667969 C0.117712329,7.02837891 0.0141872146,7.27535156 0.0141872146,7.53234375 L0.0141872146,23.6961328 C0.0141872146,24.2317969 0.454050228,24.6659766 0.996726027,24.6659766 L10.3962009,24.6659766 C10.9388767,24.6659766 11.3787397,24.2317969 11.3787397,23.6961328 C11.3787397,23.1604687 10.9388767,22.7262891 10.3962009,22.7262891 L1.97920548,22.7262891 L1.97920548,7.93382812 L8.05186758,1.93962891 L17.9288402,1.93962891 L17.9288402,14.5150781 C17.9288402,15.0504492 18.3687032,15.4849219 18.911379,15.4849219 C19.4540548,15.4849219 19.8939178,15.0507422 19.8939178,14.5150781 L19.8939178,0.96984375 C19.8938584,0.434179687 19.4540548,0 18.911379,0 Z" id="Shape"></path>
                <path d="M14.0642785,10.7327344 L5.84382648,10.7327344 C5.30115068,10.7327344 4.86128767,11.1669141 4.86128767,11.7025781 C4.86128767,12.2382422 5.30115068,12.6724219 5.84382648,12.6724219 L14.0642785,12.6724219 C14.6073105,12.6724219 15.0468174,12.2382422 15.0468174,11.7025781 C15.046758,11.1669141 14.6069543,10.7327344 14.0642785,10.7327344 Z" id="Shape"></path>
                <path d="M14.0642785,14.6120508 L5.84382648,14.6120508 C5.30115068,14.6120508 4.86128767,15.0462305 4.86128767,15.5818945 C4.86128767,16.1175586 5.30115068,16.5517383 5.84382648,16.5517383 L14.0642785,16.5517383 C14.6073105,16.5517383 15.0468174,16.1175586 15.0468174,15.5818945 C15.0468174,15.0462305 14.6069543,14.6120508 14.0642785,14.6120508 Z" id="Shape"></path>
                <path d="M18.4528767,17.1012891 C15.3827991,17.1012891 12.8852557,19.5665625 12.8852557,22.5969727 C12.8852557,25.6273828 15.3827991,28.0926562 18.4528767,28.0926562 C21.5229543,28.0926562 24.0204977,25.6273828 24.0204977,22.5969727 C24.0204977,19.5665625 21.522895,17.1012891 18.4528767,17.1012891 Z M18.4528767,26.1530273 C16.4665479,26.1530273 14.850274,24.5576367 14.850274,22.5969727 C14.850274,20.6363086 16.4665479,19.040918 18.4528767,19.040918 C20.4392055,19.040918 22.0554795,20.6363086 22.0554795,22.5969727 C22.0554201,24.5576367 20.4392055,26.1530273 18.4528767,26.1530273 Z" id="Shape"></path>
                <path d="M25.6943516,28.3412695 L22.4193014,25.1411719 C22.033516,24.7642383 21.4118904,24.7668164 21.0300228,25.1479688 C20.6477991,25.5287695 20.6511233,26.1427148 21.0369087,26.5192969 L24.3119589,29.7193945 C24.5035753,29.906543 24.7531279,30 25.0029772,30 C25.2557945,30 25.508968,29.9039648 25.7012374,29.7125977 C26.0834612,29.3317969 26.0801963,28.7179102 25.6943516,28.3412695 Z" id="Shape"></path>
            </g>
        </g>
    </g>
</svg>