<?xml version="1.0" encoding="UTF-8"?>
<svg width="59px" height="63px" viewBox="0 0 59 63" version="1.1" xmlns="http://www.w3.org/2000/svg" xmlns:xlink="http://www.w3.org/1999/xlink">
    <!-- Generator: Sketch 49.3 (51167) - http://www.bohemiancoding.com/sketch -->
    <title>Group 14</title>
    <desc>Created with Sketch.</desc>
    <defs></defs>
    <g id="A-Migration-Engineer" stroke="none" stroke-width="1" fill="none" fill-rule="evenodd">
        <g id="A5_Migration-Engineer-V2" transform="translate(-613.000000, -300.000000)" fill="#000000" fill-rule="nonzero">
            <g id="Group-16" transform="translate(273.500000, 228.500000)">
                <g id="Group-14" transform="translate(340.000000, 72.000000)">
                    <path d="M33.784569,52.620819 C32.5411207,52.620819 31.5238362,53.6381034 31.5238362,54.8815517 C31.5238362,56.125 32.5411207,57.1422845 33.784569,57.1422845 L54.5082328,57.1422845 C55.751681,57.1422845 56.7689655,56.125 56.7689655,54.8815517 L56.7689655,18.8977155 C56.7689655,18.2571121 56.5051724,17.6542672 56.0531034,17.2398276 L39.0974138,1.60284483 C38.6828448,1.22603448 38.1176293,1 37.5525431,1 L12.3072845,1 C11.0638362,1 10.0465517,2.01728448 10.0465517,3.26073276 L10.0465517,27.7523707 C10.0465517,28.995819 11.0638362,30.0131034 12.3072845,30.0131034 C13.5507328,30.0131034 14.5680172,28.995819 14.5680172,27.7523707 L14.5680172,5.52159483 L32.6541379,5.52159483 L32.6541379,25.1149569 C32.6541379,26.3584052 33.6714224,27.3756897 34.9148707,27.3756897 L51.8706897,27.3756897 C51.9837069,27.3756897 52.1344828,27.3756897 52.2475,27.3380603 L52.2475,52.6209483 L33.784569,52.6209483 L33.784569,52.620819 Z M51.8706897,22.8540948 L37.1757328,22.8540948 L37.1757328,5.97366379 L52.2475,19.8773707 L52.2475,22.8917241 C52.1344828,22.8540948 51.9837069,22.8540948 51.8706897,22.8540948 Z M1.00336207,49.2297845 C1.00336207,47.9863362 2.02064655,46.9690517 3.26409483,46.9690517 L10.0464224,46.9690517 L10.0464224,39.8099138 C10.0464224,38.5664655 11.0637069,37.549181 12.3071552,37.549181 C13.5506034,37.549181 14.5678879,38.5664655 14.5678879,39.8099138 L14.5678879,46.9690517 L22.1038362,46.9690517 C23.3472845,46.9690517 24.364569,47.9863362 24.364569,49.2297845 C24.364569,50.4732328 23.3472845,51.4905172 22.1038362,51.4905172 L14.5678879,51.4905172 L14.5678879,58.6496552 C14.5678879,59.8931034 13.5506034,60.9103879 12.3071552,60.9103879 C11.0637069,60.9103879 10.0464224,59.8931034 10.0464224,58.6496552 L10.0464224,51.4905172 L3.26422414,51.4905172 C2.02077586,51.4905172 1.00336207,50.4731034 1.00336207,49.2297845 Z" id="Shape"></path>
                </g>
            </g>
        </g>
    </g>
</svg>