<?xml version="1.0" encoding="UTF-8"?>
<svg width="53px" height="63px" viewBox="0 0 53 63" version="1.1" xmlns="http://www.w3.org/2000/svg" xmlns:xlink="http://www.w3.org/1999/xlink">
    <!-- Generator: Sketch 49.3 (51167) - http://www.bohemiancoding.com/sketch -->
    <title>Group 13</title>
    <desc>Created with Sketch.</desc>
    <defs></defs>
    <g id="A-Migration-Engineer" stroke="none" stroke-width="1" fill="none" fill-rule="evenodd">
        <g id="A5_Migration-Engineer-V2" transform="translate(-359.000000, -300.000000)" fill="#000000" fill-rule="nonzero">
            <g id="Group-16" transform="translate(273.500000, 228.500000)">
                <g id="Group-13" transform="translate(86.000000, 72.000000)">
                    <path d="M46.1473103,32.7511724 L46.1473103,5.82303448 L5.95586207,5.82303448 L5.95586207,56.0623448 L24.4438621,56.0623448 C25.7702069,56.0623448 26.8553103,57.1474483 26.8553103,58.4737931 C26.8553103,59.8001379 25.7702069,60.8852414 24.4438621,60.8852414 L3.54427586,60.8852414 C2.21793103,60.8852414 1.13282759,59.8001379 1.13282759,58.4737931 L1.13282759,3.41144828 C1.13282759,2.08510345 2.21806897,1 3.54427586,1 L48.5586207,1 C49.8849655,1 50.970069,2.08510345 50.970069,3.41144828 L50.970069,32.7511724 C50.970069,34.0775172 49.8849655,35.1626207 48.5586207,35.1626207 C47.2322759,35.1626207 46.1473103,34.0775172 46.1473103,32.7511724 Z" id="Shape"></path>
                    <path d="M46.0444138,32.865931 L46.0444138,5.9377931 L5.85296552,5.9377931 L5.85296552,56.1771034 L24.3409655,56.1771034 C25.6673103,56.1771034 26.7524138,57.2622069 26.7524138,58.5885517 C26.7524138,59.9148966 25.6673103,61 24.3409655,61 L3.44137931,61 C2.11503448,61 1.02993103,59.9148966 1.02993103,58.5885517 L1.02993103,3.5262069 C1.02993103,2.19986207 2.11517241,1.11475862 3.44137931,1.11475862 L48.4557241,1.11475862 C49.782069,1.11475862 50.8671724,2.19986207 50.8671724,3.5262069 L50.8671724,32.865931 C50.8671724,34.1922759 49.782069,35.2773793 48.4557241,35.2773793 C47.1293793,35.2773793 46.0444138,34.1922759 46.0444138,32.865931 Z" id="Shape" transform="translate(25.948552, 31.057379) scale(-1, -1) translate(-25.948552, -31.057379) "></path>
                    <path d="M39.4645822,14 L12.9595557,14 C11.3397657,14 10.0145902,15.3251755 10.0145902,16.9449655 C10.0145902,18.5647555 11.3397657,19.889931 12.9595557,19.889931 L39.4645822,19.889931 C41.0843722,19.889931 42.4095478,18.5647555 42.4095478,16.9449655 C42.4095478,15.3251755 41.0843722,14 39.4645822,14 Z" id="Path"></path>
                </g>
            </g>
        </g>
    </g>
</svg>