<?xml version="1.0" encoding="UTF-8"?>
<svg width="61px" height="63px" viewBox="0 0 61 63" version="1.1" xmlns="http://www.w3.org/2000/svg" xmlns:xlink="http://www.w3.org/1999/xlink">
    <!-- Generator: Sketch 49.3 (51167) - http://www.bohemiancoding.com/sketch -->
    <title>Group 15</title>
    <desc>Created with Sketch.</desc>
    <defs></defs>
    <g id="A-Migration-Engineer" stroke="none" stroke-width="1" fill="none" fill-rule="evenodd">
        <g id="A5_Migration-Engineer-V2" transform="translate(-865.000000, -300.000000)" fill="#000000" fill-rule="nonzero">
            <g id="Group-16" transform="translate(273.500000, 228.500000)">
                <g id="Group-15" transform="translate(592.000000, 72.000000)">
                    <path d="M46.1473103,32.7511724 L46.1473103,5.82303448 L5.95586207,5.82303448 L5.95586207,56.0623448 L24.4438621,56.0623448 C25.7702069,56.0623448 26.8553103,57.1474483 26.8553103,58.4737931 C26.8553103,59.8001379 25.7702069,60.8852414 24.4438621,60.8852414 L3.54427586,60.8852414 C2.21793103,60.8852414 1.13282759,59.8001379 1.13282759,58.4737931 L1.13282759,3.41144828 C1.13282759,2.08510345 2.21806897,1 3.54427586,1 L48.5586207,1 C49.8849655,1 50.970069,2.08510345 50.970069,3.41144828 L50.970069,32.7511724 C50.970069,34.0775172 49.8849655,35.1626207 48.5586207,35.1626207 C47.2322759,35.1626207 46.1473103,34.0775172 46.1473103,32.7511724 Z M58.5664828,38.6191724 C57.5616552,37.7348966 56.0344828,37.8153103 55.1502069,38.8201379 L41.9271724,53.5302069 L35.2955862,47.1397241 C34.3310345,46.2153103 32.8037241,46.2554483 31.8793103,47.2201379 C30.9548966,48.1848276 30.9950345,49.712 31.9597241,50.6364138 L40.3998621,58.7550345 C40.841931,59.1971034 41.4448276,59.4383448 42.0878621,59.4383448 C42.128,59.4383448 42.128,59.4383448 42.1682759,59.4383448 C42.8113103,59.3982069 43.4543448,59.1168276 43.8562759,58.6344828 L58.7271724,42.0755862 C59.6515862,41.0306207 59.5711724,39.5034483 58.5664828,38.6191724 Z M37.3051034,15.0670345 L15.6017931,15.0670345 C14.2754483,15.0670345 13.1903448,16.1521379 13.1903448,17.4784828 C13.1903448,18.8048276 14.2754483,19.889931 15.6017931,19.889931 L37.3051034,19.889931 C38.6314483,19.889931 39.7165517,18.8048276 39.7165517,17.4784828 C39.7165517,16.1521379 38.6314483,15.0670345 37.3051034,15.0670345 Z M39.7166897,30.7416552 C39.7166897,29.4153103 38.6315862,28.3302069 37.3052414,28.3302069 L15.6017931,28.3302069 C14.2754483,28.3302069 13.1903448,29.4153103 13.1903448,30.7416552 C13.1903448,32.068 14.2754483,33.1531034 15.6017931,33.1531034 L37.3051034,33.1531034 C38.6314483,33.1531034 39.7166897,32.068 39.7166897,30.7416552 Z M15.6017931,41.1914483 C14.2754483,41.1914483 13.1903448,42.2765517 13.1903448,43.6028966 C13.1903448,44.9292414 14.2754483,46.0143448 15.6017931,46.0143448 L22.0324138,46.0143448 C23.3587586,46.0143448 24.4438621,44.9292414 24.4438621,43.6028966 C24.4438621,42.2765517 23.3587586,41.1914483 22.0324138,41.1914483 L15.6017931,41.1914483 Z" id="Shape"></path>
                </g>
            </g>
        </g>
    </g>
</svg>