
<svg viewBox="0 0 22 22" version="1.1" xmlns="http://www.w3.org/2000/svg" xmlns:xlink="http://www.w3.org/1999/xlink">
  <path fill="#BABABA" d="M17.4166667,16.1788917 C19.8614167,13.1538917 19.8614167,8.832725 17.4166667,5.80864167 C14.553,2.26480833 9.35825,1.712975 5.81441667,4.57664167 C2.27058333,7.441225 1.71966667,12.635975 4.58333333,16.1788917 L4.58333333,15.8763917 C4.46325,13.818475 6.02708333,12.0493083 8.085,11.9173083 L13.915,11.9173083 C15.9729167,12.0493083 17.53675,13.818475 17.4166667,15.8763917 L17.4166667,16.1788917 Z M11,0.917308333 C16.56875,0.917308333 21.0833333,5.430975 21.0833333,11.0006417 C21.0833333,16.5693917 16.56875,21.083975 11,21.083975 C5.43125,21.083975 0.916666667,16.5693917 0.916666667,11.0006417 C0.916666667,5.430975 5.43125,0.917308333 11,0.917308333 Z M11,4.58351667 C12.5189167,4.58351667 13.75,5.8146 13.75,7.33351667 C13.75,8.85243333 12.5189167,10.0835167 11,10.0835167 C9.48108333,10.0835167 8.25,8.85243333 8.25,7.33351667 C8.25,5.8146 9.48108333,4.58351667 11,4.58351667 Z" id="path-1"></path>
</svg>