<?xml version="1.0" encoding="UTF-8"?>
<svg width="20px" height="24px" viewBox="0 0 20 24" version="1.1" xmlns="http://www.w3.org/2000/svg" xmlns:xlink="http://www.w3.org/1999/xlink">
    <!-- Generator: Sketch 49.3 (51167) - http://www.bohemiancoding.com/sketch -->
    <title>baseline-bug_report-24px (1)</title>
    <desc>Created with Sketch.</desc>
    <defs></defs>
    <g id="A-Migration-Engineer" stroke="none" stroke-width="1" fill="none" fill-rule="evenodd">
        <g id="A7_Migration-Engineer-V2" transform="translate(-309.000000, -257.000000)">
            <g id="baseline-bug_report-24px-(1)" transform="translate(304.000000, 254.000000)">
                <polygon id="Shape" points="0 0 30 0 30 30 0 30"></polygon>
                <path d="M25,10 L21.4875,10 C20.925,9.025 20.15,8.1875 19.2125,7.55 L21.25,5.5125 L19.4875,3.75 L16.775,6.4625 C16.2,6.325 15.6125,6.25 15,6.25 C14.3875,6.25 13.8,6.325 13.2375,6.4625 L10.5125,3.75 L8.75,5.5125 L10.775,7.55 C9.85,8.1875 9.075,9.025 8.5125,10 L5,10 L5,12.5 L7.6125,12.5 C7.55,12.9125 7.5,13.325 7.5,13.75 L7.5,15 L5,15 L5,17.5 L7.5,17.5 L7.5,18.75 C7.5,19.175 7.55,19.5875 7.6125,20 L5,20 L5,22.5 L8.5125,22.5 C9.8125,24.7375 12.225,26.25 15,26.25 C17.775,26.25 20.1875,24.7375 21.4875,22.5 L25,22.5 L25,20 L22.3875,20 C22.45,19.5875 22.5,19.175 22.5,18.75 L22.5,17.5 L25,17.5 L25,15 L22.5,15 L22.5,13.75 C22.5,13.325 22.45,12.9125 22.3875,12.5 L25,12.5 L25,10 Z M17.5,20 L12.5,20 L12.5,17.5 L17.5,17.5 L17.5,20 Z M17.5,15 L12.5,15 L12.5,12.5 L17.5,12.5 L17.5,15 Z" id="Shape" fill="#000000" fill-rule="nonzero"></path>
            </g>
        </g>
    </g>
</svg>