<?xml version="1.0" encoding="UTF-8"?>
<svg width="14px" height="15px" viewBox="0 0 14 15" version="1.1" xmlns="http://www.w3.org/2000/svg" xmlns:xlink="http://www.w3.org/1999/xlink">
    <!-- Generator: Sketch 52.5 (67469) - http://www.bohemiancoding.com/sketch -->
    <title>16 / calendar </title>
    <desc>Created with Sketch.</desc>
    <defs>
        <path d="M12,1 L12,0 L9,0 L9,1 L5,1 L5,0 L2,0 L2,1 L0,1 L0,15 L14,15 L14,1 L12,1 Z M10,1 L11,1 L11,3 L10,3 L10,1 Z M3,1 L4,1 L4,3 L3,3 L3,1 Z M13,14 L1,14 L1,5 L13,5 L13,14 Z M5,9 L3,9 L3,7 L5,7 L5,9 Z M8,9 L6,9 L6,7 L8,7 L8,9 Z M11,9 L9,9 L9,7 L11,7 L11,9 Z M8,12 L6,12 L6,10 L8,10 L8,12 Z M5,12 L3,12 L3,10 L5,10 L5,12 Z" id="path-1"></path>
    </defs>
    <g id="2-–-Manage-Project" stroke="none" stroke-width="1" fill="none" fill-rule="evenodd">
        <g id="1.3-/-Reliability-Center-/-Project-Manager-Workspace" transform="translate(-41.000000, -240.000000)">
            <g id="/planning" transform="translate(24.000000, 184.000000)">
                <g id="/constrains-definition" transform="translate(0.000000, 40.000000)">
                    <g id="16-/-calendar-" transform="translate(16.000000, 16.000000)">
                        <g id="--16-/-Calendar-" transform="translate(1.000000, 0.000000)">
                            <mask id="mask-2" fill="white">
                                <use xlink:href="#path-1"></use>
                            </mask>
                            <use id="Mask" fill="#464646" fill-rule="nonzero" xlink:href="#path-1"></use>
                            <g id="color-background-icon-regular" mask="url(#mask-2)" fill="#000000">
                                <g transform="translate(-1.000000, 0.000000)" id="Rectangle">
                                    <rect x="0" y="0" width="16" height="16"></rect>
                                </g>
                            </g>
                        </g>
                    </g>
                </g>
            </g>
        </g>
    </g>
</svg>