<svg xmlns="http://www.w3.org/2000/svg" xmlns:xlink="http://www.w3.org/1999/xlink" width="88" height="88" viewBox="0 0 88 88">
    <defs>
        <path id="a" d="M69.667 64.716c9.779-12.1 9.779-29.385 0-41.481-11.455-14.176-32.234-16.383-46.41-4.928C9.083 29.765 6.88 50.544 18.334 64.716v-1.21c-.48-8.232 5.775-15.309 14.007-15.837h23.32c8.232.528 14.487 7.605 14.007 15.837v1.21zM44 3.669c22.275 0 40.333 18.055 40.333 40.334 0 22.275-18.058 40.333-40.333 40.333S3.667 66.278 3.667 44.003C3.667 21.723 21.725 3.669 44 3.669zm0 14.665c6.076 0 11 4.924 11 11s-4.924 11-11 11-11-4.924-11-11 4.924-11 11-11z"/>
    </defs>
    <g fill="none" fill-rule="evenodd">
        <mask id="b" fill="#fff">
            <use xlink:href="#a"/>
        </mask>
        <use fill="#262626" xlink:href="#a"/>
        <g fill="#DBDBDB" mask="url(#b)">
            <path d="M0 0h88v88H0z"/>
        </g>
    </g>
</svg>
