<?xml version="1.0" encoding="UTF-8"?>
<svg width="18px" height="18px" viewBox="0 0 18 18" version="1.1" xmlns="http://www.w3.org/2000/svg" xmlns:xlink="http://www.w3.org/1999/xlink">
    <!-- Generator: Sketch 49.3 (51167) - http://www.bohemiancoding.com/sketch -->
    <title>Group 2</title>
    <desc>Created with Sketch.</desc>
    <defs></defs>
    <g id="A-Migration-Engineer" stroke="none" stroke-width="1" fill="none" fill-rule="evenodd">
        <g id="A0_Migration-Engineer-V1" transform="translate(-394.000000, -263.000000)" fill="#999999" fill-rule="nonzero">
            <g id="Group-2" transform="translate(394.000000, 263.000000)">
                <g id="Group">
                    <path d="M17.85675,16.2345 L13.203,11.58075 C14.07825,10.377 14.59575,8.8965 14.59575,7.2975 C14.59575,3.27375 11.322,0 7.2975,0 C3.27375,0 0,3.27375 0,7.2975 C0,11.322 3.27375,14.595 7.2975,14.595 C8.823,14.595 10.23975,14.12475 11.41275,13.3215 L16.09125,18 L17.85675,16.2345 Z M2.1405,7.2975 C2.1405,4.4535 4.45425,2.13975 7.29825,2.13975 C10.14225,2.13975 12.456,4.4535 12.456,7.2975 C12.456,10.1415 10.14225,12.45525 7.29825,12.45525 C4.4535,12.45525 2.1405,10.1415 2.1405,7.2975 Z" id="Shape"></path>
                </g>
            </g>
        </g>
    </g>
</svg>