<?xml version="1.0" encoding="UTF-8"?>
<svg width="18px" height="20px" viewBox="0 0 18 20" version="1.1" xmlns="http://www.w3.org/2000/svg" xmlns:xlink="http://www.w3.org/1999/xlink">
    <!-- Generator: Sketch 49.3 (51167) - http://www.bohemiancoding.com/sketch -->
    <title>Group 17 Copy</title>
    <desc>Created with Sketch.</desc>
    <defs></defs>
    <g id="A-Migration-Engineer" stroke="none" stroke-width="1" fill="none" fill-rule="evenodd">
        <g id="A0_Migration-Engineer-V1" transform="translate(-855.000000, -599.000000)" fill="#666666" fill-rule="nonzero">
            <g id="Group-4" transform="translate(855.000000, 360.000000)">
                <g id="Group-17-Copy" transform="translate(0.000000, 239.000000)">
                    <path d="M17.9575472,19.0398471 L17.9575472,6.1728101 C17.9575472,5.96663173 17.8733632,5.77260919 17.7290236,5.63919462 L11.9193538,0.194022537 C11.7870283,0.0727638015 11.6066038,0 11.4261792,0 L2.44103774,0 C2.04410377,0 1.71933962,0.327437107 1.71933962,0.727638015 L1.71933962,8.85291492 C1.71933962,9.25311583 2.04410377,9.58055294 2.44103774,9.58055294 C2.8379717,9.58055294 3.16273585,9.25311583 3.16273585,8.85291492 L3.16273585,1.45527603 L10.4999858,1.45527603 L10.4999858,7.03381988 C10.4999858,7.43402079 10.82475,7.7614579 11.221684,7.7614579 L16.3938396,7.7614579 C16.4299245,7.7614579 16.4780236,7.7614579 16.5141085,7.74934486 L16.5141085,18.3122091 L3.16273585,18.3122091 L3.16273585,15.4016571 C3.16273585,15.0014561 2.8379717,14.674019 2.44103774,14.674019 C2.04410377,14.674019 1.71933962,15.0014561 1.71933962,15.4016571 L1.71933962,19.0398471 C1.71933962,19.440048 2.04410377,19.7674852 2.44103774,19.7674852 L17.2358491,19.7674852 C17.632783,19.7674852 17.9575472,19.440048 17.9575472,19.0398471 Z M11.9433821,2.20718291 L16.3096557,6.30622467 L11.9433821,6.30622467 L11.9433821,2.20718291 Z" id="Shape"></path>
                    <path d="M0.0353632075,12.0060273 C0.0353632075,12.4062282 0.360127358,12.7336653 0.757061321,12.7336653 L8.27473585,12.7336653 L5.95328774,14.8195466 C5.65259434,15.086333 5.62852358,15.5471847 5.89313208,15.8503529 C6.0374717,16.0079935 6.22991038,16.0929132 6.43440566,16.0929132 C6.60281604,16.0929132 6.77118396,16.0322624 6.91552358,15.9110037 L10.6683538,12.5395999 C10.8247075,12.4061854 10.908934,12.2000498 10.908934,11.9938714 C10.908934,11.787693 10.82475,11.5936705 10.6683538,11.4481429 L6.91556604,8.07678197 C6.61487264,7.80999563 6.15778302,7.8342217 5.89317453,8.13743274 C5.62856604,8.44060098 5.65259434,8.90145266 5.95333019,9.16823899 L8.31086321,11.2783892 L0.757061321,11.2783892 C0.360127358,11.2783892 0.0353632075,11.6058263 0.0353632075,12.0060273 Z" id="Shape"></path>
                </g>
            </g>
        </g>
    </g>
</svg>