<?xml version="1.0" encoding="UTF-8"?>
<svg width="20px" height="20px" viewBox="0 0 20 20" version="1.1" xmlns="http://www.w3.org/2000/svg" xmlns:xlink="http://www.w3.org/1999/xlink">
    <!-- Generator: Sketch 49.3 (51167) - http://www.bohemiancoding.com/sketch -->
    <title>Group 3</title>
    <desc>Created with Sketch.</desc>
    <defs></defs>
    <g id="A-Migration-Engineer" stroke="none" stroke-width="1" fill="none" fill-rule="evenodd">
        <g id="A0_Migration-Engineer-V1" transform="translate(-855.000000, -421.000000)" fill="#666666" fill-rule="nonzero">
            <g id="Group-4" transform="translate(855.000000, 360.000000)">
                <g id="Group-3" transform="translate(0.000000, 61.000000)">
                    <path d="M10,0 C4.47714286,0 0,4.47714286 0,10 C0,15.5228571 4.47714286,20 10,20 C15.5228571,20 20,15.5228571 20,10 C20,4.47714286 15.5228571,0 10,0 Z M10,18.5714286 C5.26642857,18.5714286 1.42857143,14.7335714 1.42857143,10 C1.42857143,5.26642857 5.26642857,1.42857143 10,1.42857143 C14.7335714,1.42857143 18.5714286,5.26642857 18.5714286,10 C18.5714286,14.7335714 14.7335714,18.5714286 10,18.5714286 Z" id="Shape"></path>
                    <path d="M4.44428571,15.555 C4.44428571,15.555 10.7571429,13.2814286 12.02,12.02 C13.2828571,10.7571429 15.555,4.44428571 15.555,4.44428571 C15.555,4.44428571 9.24214286,6.71785714 7.98,7.98 C6.71785714,9.24214286 4.44428571,15.555 4.44428571,15.555 Z M8.99,8.99 L11.01,11.01 C11.515,11.515 6.465,13.535 6.465,13.535 C6.465,13.535 8.485,8.485 8.99,8.99 Z" id="Shape"></path>
                </g>
            </g>
        </g>
    </g>
</svg>