<?xml version="1.0" encoding="UTF-8"?>
<svg width="62px" height="62px" viewBox="0 0 62 62" version="1.1" xmlns="http://www.w3.org/2000/svg" xmlns:xlink="http://www.w3.org/1999/xlink">
    <!-- Generator: Sketch 52.5 (67469) - http://www.bohemiancoding.com/sketch -->
    <title>/joint</title>
    <desc>Created with Sketch.</desc>
    <defs>
        <rect id="path-1" x="5" y="5" width="24" height="24" rx="2"></rect>
        <filter x="-91.7%" y="-91.7%" width="316.7%" height="316.7%" filterUnits="objectBoundingBox" id="filter-2">
            <feOffset dx="4" dy="4" in="SourceAlpha" result="shadowOffsetOuter1"></feOffset>
            <feGaussianBlur stdDeviation="8" in="shadowOffsetOuter1" result="shadowBlurOuter1"></feGaussianBlur>
            <feColorMatrix values="0 0 0 0 0   0 0 0 0 0   0 0 0 0 0  0 0 0 0.32 0" type="matrix" in="shadowBlurOuter1"></feColorMatrix>
        </filter>
        <path d="M14.79,7.28 L14.79,7.99 L12.31,10.46 L12.75,10.9 L12.75,11.61 L11.69,12.67 L5.33,6.31 L6.39,5.25 L7.1,5.25 L7.54,5.69 L10.01,3.21 L10.72,3.22 L12.22,4.72 L13.93,3.01 L14.99,4.07 L13.29,5.78 L14.79,7.28 Z M3.25,8.39 L4.31,7.33 L10.67,13.7 L9.61,14.76 L8.9,14.75 L8.46,14.31 L5.99,16.79 L5.27,16.78 L3.77,15.29 L2.07,16.99 L1.01,15.93 L2.71,14.22 L1.22,12.73 L1.21,12.02 L3.69,9.54 L3.25,9.11 L3.25,8.39 Z" id="path-3"></path>
    </defs>
    <g id="Project-Modelling-–-GIS-&amp;-SLD" stroke="none" stroke-width="1" fill="none" fill-rule="evenodd">
        <g id="4.9-/-Settings-/-Edit-Mode-/-T&amp;D-Utility-/-Connected-settings" transform="translate(-893.000000, -329.000000)">
            <g id="/joint" transform="translate(907.000000, 337.000000)">
                <g id="Rectangle" fill-rule="nonzero" transform="translate(17.000000, 17.000000) rotate(45.000000) translate(-17.000000, -17.000000) ">
                    <use fill="black" fill-opacity="1" filter="url(#filter-2)" xlink:href="#path-1"></use>
                    <use fill="#FFFFFF" xlink:href="#path-1"></use>
                </g>
                <rect id="Rectangle" fill="#848484" fill-rule="nonzero" x="8" y="8" width="18" height="18" rx="9"></rect>
                <g id="16-/-connect" transform="translate(9.000000, 9.000000)">
                    <g transform="translate(0.000000, -2.000000)">
                        <mask id="mask-4" fill="white">
                            <use xlink:href="#path-3"></use>
                        </mask>
                        <use id="Combined-Shape" fill="#464646" xlink:href="#path-3"></use>
                        <g id="color-grey-0" mask="url(#mask-4)" fill="#FFFFFF">
                            <rect id="Rectangle" x="0" y="0" width="16" height="20"></rect>
                        </g>
                    </g>
                </g>
            </g>
        </g>
    </g>
</svg>