<svg xmlns="http://www.w3.org/2000/svg" xmlns:xlink="http://www.w3.org/1999/xlink" width="24" height="24" viewBox="0 0 24 24">
    <defs>
        <path id="a" d="M19 17.65a9 9 0 1 0-14 0v-.33A4.089 4.089 0 0 1 8.82 13h6.36A4.089 4.089 0 0 1 19 17.32v.33zM12 1c6.075 0 11 4.925 11 11 0 6.076-4.925 11-11 11S1 18.077 1 12C1 5.926 5.925 1 12 1zm0 4a3 3 0 1 1 0 6 3 3 0 0 1 0-6z"/>
    </defs>
    <g fill="none" fill-rule="evenodd">
        <mask id="b" fill="#fff">
            <use xlink:href="#a"/>
        </mask>
        <use fill="#262626" xlink:href="#a"/>
        <g fill="#FFF" mask="url(#b)">
            <path d="M0 0h24v24H0z"/>
        </g>
    </g>
</svg>
