<svg xmlns="http://www.w3.org/2000/svg" xmlns:xlink="http://www.w3.org/1999/xlink" width="167" height="64" viewBox="0 0 167 64">
    <defs>
        <path id="a" d="M.113 0h30.104v30.136H.113z"/>
    </defs>
    <g fill="none" fill-rule="evenodd">
        <g transform="translate(.108 32.02)">
            <mask id="b" fill="#fff">
                <use xlink:href="#a"/>
            </mask>
            <path fill="#FF000F" d="M10.684 0L0 30.136h15.74l4.407-13.185h10.07V0H10.684" mask="url(#b)"/>
        </g>
        <path fill="#FF000F" d="M30.325 0h-8.181L11.462 30.136h18.863V0M42.287 48.97l4.408 13.185H62.43L51.75 32.019H32.214v16.952zM51.08 30.136L40.4 0h-8.185v30.136H51.08"/>
        <g fill="#FF000F">
            <path d="M159.09 30.09a20.288 20.288 0 0 0-7.423-6.13c3.433-2.38 5.683-6.325 5.683-10.796C157.35 5.894 151.41 0 144.085 0h-4.422v30.09h19.426M139.663 31.97v30.09h3.16c11.165 0 19.895-8.977 19.895-20.058 0-3.658-.678-7.08-2.399-10.031h-20.656M118.818 30.09h18.95V0h-18.95zM118.818 62.06h18.95V31.97h-18.95z"/>
        </g>
        <g fill="#FF000F">
            <path d="M108.663 30.09a20.267 20.267 0 0 0-7.42-6.13c3.431-2.38 5.683-6.325 5.683-10.796C106.926 5.894 100.986 0 93.66 0h-4.42v30.09h19.423M68.394 30.09h18.95V0h-18.95zM68.394 62.06h18.95V31.97h-18.95zM89.24 31.97v30.09h3.158c11.166 0 19.896-8.977 19.896-20.058 0-3.658-.678-7.08-2.399-10.031H89.24"/>
        </g>
    </g>
</svg>
