<?xml version="1.0" encoding="UTF-8"?>
<svg width="16px" height="16px" viewBox="0 0 16 16" version="1.1" xmlns="http://www.w3.org/2000/svg" xmlns:xlink="http://www.w3.org/1999/xlink">
    <!-- Generator: Sketch 52.5 (67469) - http://www.bohemiancoding.com/sketch -->
    <title>16 / information explorer</title>
    <desc>Created with Sketch.</desc>
    <defs>
        <path d="M8,0 C3.581722,-2.705415e-16 5.41083001e-16,3.581722 0,8 C-5.41083001e-16,12.418278 3.581722,16 8,16 C12.418278,16 16,12.418278 16,8 C16,5.87826808 15.1571453,3.84343678 13.6568542,2.34314575 C12.1565632,0.842854723 10.1217319,1.2991861e-16 8,0 Z M6.69,2.61 C6.69,2.56 6.86,2.5 6.91,2.5 C6.96,2.5 6.97,2.6 6.99,2.7 C7.01,2.8 7.33,3.08 7.36,3.1 C7.39,3.12 7.31,3.26 7.11,3.32 C6.91,3.38 6.93,3.32 6.91,3.32 C6.84062629,3.33324243 6.76937371,3.33324243 6.7,3.32 C6.67182138,3.08433594 6.66846967,2.84636418 6.69,2.61 Z M6.42,3 C6.50781608,3.01202946 6.5871012,3.05887976 6.64,3.13 C6.64,3.13 6.55,3.25 6.53,3.28 C6.51,3.31 6.43,3.43 6.38,3.38 C6.34381317,3.34614858 6.3222828,3.29949943 6.32,3.25 C6.31,3.17 6.42,3 6.42,3 Z M2.52,3.88 C2.65,3.79 3.07,4.1 3.07,4.1 C3.0185761,4.16513733 2.9935826,4.2472588 3,4.33 C3.29,4.75 3.08,4.96 3.08,4.96 C2.23,5.48 2.36,5.6 2.36,5.6 L2.52,5.49 L2.63,5.49 C2.63,5.49 2.26,6.79 2.16,7 C1.86350293,7.30687675 1.52716859,7.57258087 1.16,7.79 C1.20116909,6.37795237 1.67600354,5.01280333 2.52,3.88 Z M4.23,12.88 C4.23,12.97 3.45,13.07 3.45,13.07 C2.39486747,12.1313396 1.65169681,10.8927218 1.32,9.52 C1.32,9.52 2.13,9.83 2.56,10.05 C2.99,10.27 3.06,10.75 3.23,10.94 C3.392944,11.0747061 3.58446872,11.1704685 3.79,11.22 C3.87032164,11.2907517 3.9614817,11.3481488 4.06,11.39 C4.19940246,11.446648 4.32542919,11.5318012 4.43,11.64 C4.35772204,11.9233291 4.26412184,12.2007869 4.15,12.47 C4.19475101,12.6093716 4.22163245,12.7538594 4.23,12.9 L4.23,12.88 Z M4.74,3 C4.74,3 4.35,3.1 4.32,3.27 L4,3.38 L3.79,3.23 L3.41,3 C4.02701616,2.31491443 4.81852529,1.81028415 5.7,1.54 C5.7,1.54 5.76,2.08 5.7,2.1 C5.64,2.12 5.46,1.98 5.25,2.24 C5.04,2.5 4.85,3.11 4.74,3 Z M11.88,11.69 C11.88,11.84 11.49,12.16 11.33,12.33 L11.04,12.64 L11.04,13 C11.04,13.25 10.65,13.38 10.57,13.52 C10.4477125,13.681654 10.2858451,13.8090814 10.1,13.89 C9.81773326,13.9586369 9.52994233,14.0021402 9.24,14.02 C9.24,14.02 9.24,13.62 9.24,13.43 C9.19320447,13.2705051 9.11118632,13.1235559 9,13 L9,12.79 C9,12.79 8.7,12.49 8.7,12.26 C8.73327018,12.039491 8.80431076,11.8263693 8.91,11.63 C8.91,11.63 8.91,11.52 8.91,11.45 C8.84933926,11.2941295 8.77574949,11.1436049 8.69,11 C8.68032242,10.9169476 8.68032242,10.8330524 8.69,10.75 C8.69,10.64 8.31,10.45 8.3,10.43 C8.25561364,10.3320682 8.22854598,10.227181 8.22,10.12 C8.2,10 8,9.91 8,9.91 L8,9.57 C8,9.45 8,9.57 7.86,9.57 C7.72,9.57 7.81,9.57 7.72,9.57 C7.63,9.57 7.6,9.28 7.6,9.28 C7.6,9.28 7.44,9.28 7.44,9.28 C7.30604082,9.41769972 7.15863998,9.54165043 7,9.65 C6.91,9.65 6.76,9.78 6.68,9.79 C6.6,9.8 6.49,10 6.49,10 L6.29,10 C6.29,10 5.77,9.52 5.49,9.24 C5.2631987,8.9559823 5.08109973,8.6389952 4.95,8.3 L4.95,7.43 C5.01116812,7.20058837 5.14011874,6.99496441 5.32,6.84 C5.54106973,6.65679972 5.77500414,6.48970371 6.02,6.34 C6.02,6.34 6.02,6.26 6.02,6.2 C6.14121645,6.02124125 6.27844903,5.85388445 6.43,5.7 L6.9,5.7 C7.16971918,5.58721476 7.44707789,5.49364797 7.73,5.42 C7.86,5.42 7.96,5.53 8.14,5.53 C8.23642822,5.53439463 8.33153054,5.50621617 8.41,5.45 C8.45571081,5.66280411 8.51245406,5.87308791 8.58,6.08 C8.63,6.19 9.03,6.24 9.35,6.28 C9.67,6.32 9.7,6.16 9.84,6.13 C9.98,6.1 9.93,6.21 10.09,6.25 C10.4105368,6.27667703 10.7229142,6.3649576 11.01,6.51 C11.55,6.77 11.81,7.96 11.87,8.09 C11.93,8.22 12.6,9.09 12.6,9.09 C13.15,8.97 13.06,9.09 13.06,9.09 C12.8932407,9.49036969 12.6445834,9.85143367 12.33,10.15 C12.1629152,10.3402844 12.0278252,10.5564284 11.93,10.79 C11.8751115,11.0765352 11.8549661,11.3686426 11.87,11.66 L11.88,11.69 Z M12.79,12.16 C12.6714497,12.3408014 12.5226008,12.4997991 12.35,12.63 C12.35,12.63 12.35,12.63 12.24,12.63 C12.13,12.63 12.18,12.31 12.18,12.31 L12.34,11.98 C12.4,11.85 12.34,11.73 12.41,11.65 C12.48,11.57 12.72,11.46 12.77,11.42 C12.8604196,11.2879827 12.9374665,11.1472883 13,11 C13.0420692,11.3891003 12.9690537,11.7819933 12.79,12.13 L12.79,12.16 Z M14.79,7.57 C14.542385,7.30749657 14.2556632,7.08486557 13.94,6.91 L13.69,6.91 C13.4961085,6.79432176 13.3091247,6.6674399 13.13,6.53 C13.07,6.46 12.96,6.46 12.99,6.53 C13.02,6.6 13.22,6.87 13.22,6.88 C13.22,6.89 13.28,7.07 13.4,7.1 C13.495899,7.11722925 13.594101,7.11722925 13.69,7.1 C13.69,7.1 13.98,7.45 13.97,7.56 C13.6608294,7.82897997 13.3258735,8.06679865 12.97,8.27 C12.8971831,8.2823083 12.8228169,8.2823083 12.75,8.27 C12.64,8.27 12.49,8.21 12.49,8.07 C12.49,7.93 12.49,7.89 12.49,7.83 C12.49,7.77 11.33,6.21 11.33,6.18 C11.33,6.15 11.1,6.18 11.1,6.18 L11,6.18 L11,5.47 C11,5.47 11,5.69 10.86,5.69 C10.72,5.69 10.48,5.21 10.48,5.03 C10.48,4.85 10.99,4.67 10.99,4.67 C11.0998915,4.66309206 11.2101085,4.66309206 11.32,4.67 C11.5275479,4.71332117 11.7382117,4.74007212 11.95,4.75 C12,4.75 11.95,4.51 11.95,4.51 C11.8077076,4.37198299 11.6182039,4.29332108 11.42,4.29 C11.42,4.29 11.42,4.29 11.63,4.05 C11.5380188,4.02753226 11.4419812,4.02753226 11.35,4.05 C11.0822296,4.11290703 10.8367283,4.2477599 10.64,4.44 C10.64,4.44 10.64,4.88 10.64,4.88 L10.42,5 L10,5 C10,5 9.83,5 10,5.19 C9.84546369,5.03949772 9.74373663,4.84305925 9.71,4.63 C9.47207237,4.41864315 9.20202966,4.24649093 8.91,4.12 L8.72,4.32 L8.93,4.65 C9.01,4.65 9.03,4.65 9.03,4.65 L9.03,4.82 C8.999118,4.7534895 8.9623023,4.68989875 8.92,4.63 C8.83,4.63 8.65,4.3 8.52,4.29 L8.28,4.29 C8.28,4.29 7.9,4.38 7.81,4.52 L7.72,4.52 C7.72,4.52 7.28,5.14 7.14,5.16 C7,5.18 7.03,5.27 6.71,5.16 L6.34,5.07 C6.34,5.07 6.16,4.51 6.41,4.27 C6.41,4.27 7.18,4.17 7.27,3.89 C7.27,3.89 7.07,3.61 7.27,3.52 C7.52196455,3.43830407 7.76624214,3.33456975 8,3.21 C8.08,3.12 8.07,2.84 8.52,2.78 C8.52,2.78 8.86,3.18 9.04,3.19 C9.25754886,3.18000579 9.44360709,3.03035025 9.5,2.82 C9.5,2.61 9.32,2.36 9.32,2.36 C9.24528781,2.52180873 9.1548531,2.67588267 9.05,2.82 C8.8915074,2.876546 8.71481999,2.81901987 8.62,2.68 C8.46,2.46 8.49,2.4 8.49,2.4 C8.35050573,2.38707998 8.20994259,2.4076502 8.08,2.46 C8.08,2.46 8.08,2 8.37,2 L8.6,2 C8.83194889,1.8262877 9.10340564,1.71289437 9.39,1.67 C9.73,1.67 9.78,1.67 9.78,1.67 L10.85,1.61 C10.9758471,1.65042693 11.0848223,1.73127955 11.16,1.84 C11.2327015,1.94765132 11.3328118,2.03395326 11.45,2.09 C11.5668463,2.09655171 11.6826587,2.06496653 11.78,2 C13.9689244,3.40016144 15.2544377,5.85328601 15.16,8.45 C15.16,8.45 14.81,7.58 14.78,7.54 L14.79,7.57 Z" id="path-1"></path>
    </defs>
    <g id="Symbols" stroke="none" stroke-width="1" fill="none" fill-rule="evenodd">
        <g id="settings/gis–sld/hierarchical-view" transform="translate(-13.000000, -12.000000)">
            <g id="/hierarchical-view">
                <g id="16-/-information-explorer" transform="translate(13.000000, 12.000000)">
                    <g>
                        <mask id="mask-2" fill="white">
                            <use xlink:href="#path-1"></use>
                        </mask>
                        <use id="Globe" fill="#464646" fill-rule="nonzero" xlink:href="#path-1"></use>
                        <g id="color-grey-70-" mask="url(#mask-2)" fill="#525252">
                            <rect id="Rectangle" x="0" y="0" width="16" height="16"></rect>
                        </g>
                    </g>
                </g>
            </g>
        </g>
    </g>
</svg>