
<svg width="16px" height="16px" viewBox="0 0 16 16" version="1.1" xmlns="http://www.w3.org/2000/svg" xmlns:xlink="http://www.w3.org/1999/xlink">
  <path d="M16,12.1800026 L16,16.0000026 L6,16.0000026 L6,12.1800026 C6,10.4600026 8.23,9.00000258 11,9.00000258 C13.77,9.00000258 16,10.4600026 16,12.1800026 Z M11,2.00000258 C9.34314575,2.00000258 8,3.34314833 8,5.00000258 C8,6.65685683 9.34314575,8.00000258 11,8.00000258 C12.6568542,8.00000258 14,6.65685683 14,5.00000258 C14,3.34314833 12.6568542,2.00000258 11,2.00000258 Z M7.24,9.36000258 C6.51733325,9.12121679 5.76109512,8.99967852 5,9.00000258 C2.23,9.00000258 0,10.4600026 0,12.1800026 L0,16.0000026 L4.5,16.0000026 L4.5,12.1800026 C4.5,11.0000026 5.62,9.90000258 7.24,9.36000258 Z M6.5,5.00000258 C6.49340009,4.26520608 6.75671582,3.55354196 7.24,3.00000258 C6.66996211,2.36267937 5.8550572,1.99888253 5,2.00000258 C3.34314578,2.00000261 2.00000006,3.34314835 2.00000006,5.00000258 C2.00000006,6.6568568 3.34314578,8.00000254 5,8.00000258 C5.8550572,8.00112262 6.66996211,7.63732579 7.24,7.00000258 C6.75671582,6.4464632 6.49340009,5.73479908 6.5,5.00000258 Z" id="path-1"></path>
</svg>