
<svg viewBox="0 0 30 24" version="1.1" xmlns="http://www.w3.org/2000/svg" xmlns:xlink="http://www.w3.org/1999/xlink">
  <path fill="#BABABA" d="M25.9336,16.0002667 C28.5469333,16.0002667 30.6669333,18.9069333 30.6669333,22.4789333 L30.6669333,28.0002667 L13.3336,28.0002667 L13.3336,22.4789333 C13.3336,18.9069333 15.4002667,16.0002667 18.0669333,16.0002667 L25.9336,16.0002667 Z M6.0664,16.0002667 L6.13306667,16.0002667 L12.7997333,16.0002667 C11.3757333,17.8562667 10.6237333,20.1402667 10.6664,22.4789333 L10.6664,28.0002667 L1.33306667,28.0002667 L1.33306667,22.4789333 C1.33306667,18.9069333 3.45306667,16.0002667 6.0664,16.0002667 Z M9.90693333,4.00026667 L9.92026667,4.00026667 C12.4896,4.00693333 14.5669333,6.09626667 14.5602667,8.66693333 L14.5602667,8.68026667 C14.5522667,11.2576 12.4576,13.3402667 9.88026667,13.3336 C7.30293333,13.3256 5.21893333,11.2309333 5.22693333,8.6536 C5.23493333,6.07626667 7.3296,3.99226667 9.90693333,4.00026667 Z M22.0404,13.3336 L21.9470667,13.3336 C19.3844,13.3189333 17.3177333,11.2296 17.3337333,8.66693333 C17.3337333,6.1056 19.3990667,4.02293333 21.9590667,4.00026667 C24.5377333,3.9776 26.6444,6.0496 26.6670667,8.62693333 C26.6884,11.2042667 24.6177333,13.3109333 22.0404,13.3336 Z" id="path-1"></path>
</svg>