<?xml version="1.0" encoding="UTF-8"?>
<svg width="67px" height="63px" viewBox="0 0 67 63" version="1.1" xmlns="http://www.w3.org/2000/svg" xmlns:xlink="http://www.w3.org/1999/xlink">
    <!-- Generator: Sketch 49.3 (51167) - http://www.bohemiancoding.com/sketch -->
    <title>server-with-the-earth copy</title>
    <desc>Created with Sketch.</desc>
    <defs></defs>
    <g id="A-Migration-Engineer" stroke="none" stroke-width="1" fill="none" fill-rule="evenodd">
        <g id="A6_Migration-Engineer-V2" transform="translate(-356.000000, -300.000000)" fill="#000000" fill-rule="nonzero">
            <g id="Group-16" transform="translate(273.500000, 228.500000)">
                <g id="server-with-the-earth-copy" transform="translate(83.000000, 72.000000)">
                    <path d="M5.20701493,55.6162687 L24.1143284,55.6162687 L24.1143284,52.4025373 L5.20701493,52.4025373 L5.20701493,55.6162687 Z M20.2385075,53.5613433 L22.8262687,53.5613433 L22.8262687,54.4589552 L20.2385075,54.4589552 L20.2385075,53.5613433 Z M13.9997015,28.4850746 C13.9997015,27.911194 14.4664179,27.4453731 15.039403,27.4453731 C15.6123881,27.4453731 16.0791045,27.9120896 16.0791045,28.4850746 C16.0791045,29.0574627 15.6123881,29.5241791 15.039403,29.5241791 C14.4664179,29.5241791 13.9997015,29.0574627 13.9997015,28.4850746 Z M20.7476119,28.4850746 C20.7476119,27.911194 21.2138806,27.4453731 21.7867164,27.4453731 C22.360597,27.4453731 22.8264179,27.9120896 22.8264179,28.4850746 C22.8264179,29.0574627 22.3595522,29.5241791 21.7867164,29.5241791 C21.2138806,29.5241791 20.7476119,29.0574627 20.7476119,28.4850746 Z M5.20701493,47.1673134 L24.1143284,47.1673134 L24.1143284,43.9519403 L5.20701493,43.9519403 L5.20701493,47.1673134 Z M20.2385075,45.1108955 L22.8262687,45.1108955 L22.8262687,46.0085075 L20.2385075,46.0085075 L20.2385075,45.1108955 Z M1,60.9243284 L28.0383582,60.9243284 L28.0383582,22.9685075 L1,22.9685075 L1,60.9243284 Z M21.7867164,25.7432836 C23.2989552,25.7432836 24.5286567,26.9737313 24.5286567,28.4850746 C24.5286567,29.9959701 23.298209,31.2259701 21.7867164,31.2259701 C20.2758209,31.2259701 19.0462687,29.9959701 19.0462687,28.4850746 C19.0461194,26.9735821 20.2750746,25.7432836 21.7867164,25.7432836 Z M15.039403,25.7432836 C16.5514925,25.7432836 17.7807463,26.9737313 17.7807463,28.4850746 C17.7807463,29.9959701 16.5516418,31.2259701 15.039403,31.2259701 C13.5271642,31.2259701 12.2980597,29.9959701 12.2980597,28.4850746 C12.2980597,26.9735821 13.5271642,25.7432836 15.039403,25.7432836 Z M3.50492537,33.6840299 L25.8164179,33.6840299 L25.8164179,40.3020896 L3.50492537,40.3020896 L3.50492537,33.6840299 Z M3.50492537,42.2514925 L25.8164179,42.2514925 L25.8164179,48.8685075 L3.50492537,48.8685075 L3.50492537,42.2514925 Z M3.50492537,50.701194 L25.8164179,50.701194 L25.8164179,57.318209 L3.50492537,57.318209 L3.50492537,50.701194 Z M5.20701493,38.6 L24.1143284,38.6 L24.1143284,35.3855224 L5.20701493,35.3855224 L5.20701493,38.6 Z M20.2385075,36.4255224 L22.8262687,36.4255224 L22.8262687,37.3237313 L20.2385075,37.3237313 L20.2385075,36.4255224 Z M65.2479104,29.6189552 C65.2479104,31.2829851 65.0958209,32.9131343 64.82,34.5008955 L64.3232836,36.8198507 C61.1250746,49.0440299 49.9874627,58.0923881 36.7746269,58.0923881 C35.0964179,58.0923881 33.4534328,57.9374627 31.8535821,57.6573134 L31.8535821,40.6947761 C32.6055224,41.0085075 33.2085075,41.5476119 33.8859701,42.0807463 C34.8807463,42.8659701 36.3956716,42.2228358 37.5580597,42.2620896 C40.4722388,42.3592537 40.9726866,45.5029851 41.1746269,47.7774627 C41.3229851,49.4468657 42.8649254,50.8237313 42.4402985,52.5691045 C42.25,53.3507463 41.8431343,54.1364179 41.1892537,54.6219403 C45.8213433,53.8050746 50.0201493,51.7338806 53.4252239,48.7680597 C52.2455224,45.8173134 48.8464179,44.0138806 49.1456716,40.13 C49.8419403,33.5144776 57.469403,36.35 61.7655224,34.0973134 C62.0268657,32.6420896 62.1689552,31.1473134 62.1689552,29.6189552 C62.1689552,20.1116418 56.9138806,11.8129851 49.1595522,7.46074627 C49.2858209,7.57880597 49.4165672,7.69552239 49.5302985,7.81029851 C54.5323881,12.8114925 51.8383582,13.1961194 52.608209,18.9686567 C52.608209,20.8919403 56.5841791,20.5719403 56.199403,24.0355224 C55.4308955,27.498806 55.301791,30.8968657 51.8383582,28.0104478 C48.3762687,25.1246269 46.0680597,27.4341791 44.9134328,27.048806 C43.3728358,26.2795522 42.6034328,22.8162687 40.6792537,22.8162687 C35.2938806,23.2010448 38.7550746,33.9750746 32.2141791,30.8968657 C32.0859701,30.8301493 31.9723881,30.7529851 31.8520896,30.6804478 L31.8520896,19.2786567 L28.2147761,19.2786567 C28.0886567,14.9150746 27.7464179,10.4455224 23.9655224,7.70343284 C19.4128358,10.3735821 15.7823881,14.4298507 13.608806,19.2786567 L10.2507463,19.2786567 C14.3979104,8.67686567 24.7191045,1.14462687 36.7723881,1.14462687 C52.4746269,1.14552239 65.2479104,13.9180597 65.2479104,29.6189552 Z" id="Shape"></path>
                </g>
            </g>
        </g>
    </g>
</svg>