<?xml version="1.0" encoding="UTF-8"?>
<svg width="80px" height="57px" viewBox="0 0 80 57" version="1.1" xmlns="http://www.w3.org/2000/svg" xmlns:xlink="http://www.w3.org/1999/xlink">
    <!-- Generator: Sketch 49.3 (51167) - http://www.bohemiancoding.com/sketch -->
    <title>computing</title>
    <desc>Created with Sketch.</desc>
    <defs></defs>
    <g id="A-Migration-Engineer" stroke="none" stroke-width="1" fill="none" fill-rule="evenodd">
        <g id="A6_Migration-Engineer-V2" transform="translate(-603.000000, -300.000000)" fill="#000000" fill-rule="nonzero">
            <g id="Group-16" transform="translate(273.500000, 228.500000)">
                <g id="computing" transform="translate(330.000000, 72.000000)">
                    <path d="M72.55,1 L47.05,1 C44.15515,1 41.8,3.35515 41.8,6.25 L6.25,6.25 C3.35515,6.25 1,8.60515 1,11.5 L1,44.5 C1,47.39485 3.35515,49.75 6.25,49.75 L41.8,49.75 C41.8,52.64485 44.15515,55 47.05,55 L72.55,55 C75.44485,55 77.8,52.64485 77.8,49.75 L77.8,6.25 C77.8,3.35515 75.44485,1 72.55,1 Z M41.8,45.25 L6.25,45.25 C5.83645,45.25 5.5,44.91355 5.5,44.5 L5.5,42.25 L41.8,42.25 L41.8,45.25 Z M41.8,37.75 L5.5,37.75 L5.5,11.5 C5.5,11.08645 5.83645,10.75 6.25,10.75 L41.8,10.75 L41.8,37.75 Z M65.30545,5.5 L64.70545,8.5 L54.89455,8.5 L54.29455,5.5 L65.30545,5.5 Z M73.3,49.75 C73.3,50.16355 72.96355,50.5 72.55,50.5 L47.05,50.5 C46.63645,50.5 46.3,50.16355 46.3,49.75 L46.3,6.25 C46.3,5.83645 46.63645,5.5 47.05,5.5 L49.70545,5.5 L51.20545,13 L68.39455,13 L69.89455,5.5 L72.55,5.5 C72.96355,5.5 73.3,5.83645 73.3,6.25 L73.3,49.75 Z" id="Shape"></path>
                    <path d="M29.05,12.4 C24.8641,12.4 21.3364,15.27265 20.33485,19.15 L13.15,19.15 L13.15,35.65 L29.65,35.65 L29.65,30.3778 C34.3336,30.06775 38.05,26.16085 38.05,21.4 C38.05,16.4374 34.0126,12.4 29.05,12.4 Z M25.15,31.15 L17.65,31.15 L17.65,23.65 L20.33485,23.65 C21.00235,26.2339 22.7917,28.3717 25.15,29.51035 L25.15,31.15 Z M29.05,25.9 C26.5687,25.9 24.55,23.8813 24.55,21.4 C24.55,18.9187 26.5687,16.9 29.05,16.9 C31.5313,16.9 33.55,18.9187 33.55,21.4 C33.55,23.8813 31.5313,25.9 29.05,25.9 Z" id="Shape"></path>
                    <path d="M63.55,16.3 C59.3641,16.3 55.8364,19.17265 54.83485,23.05 L47.65,23.05 L47.65,39.55 L64.15,39.55 L64.15,34.2778 C68.8336,33.96775 72.55,30.06085 72.55,25.3 C72.55,20.3374 68.5126,16.3 63.55,16.3 Z M59.65,35.05 L52.15,35.05 L52.15,27.55 L54.83485,27.55 C55.50235,30.1339 57.2917,32.2717 59.65,33.41035 L59.65,35.05 Z M63.55,29.8 C61.0687,29.8 59.05,27.7813 59.05,25.3 C59.05,22.8187 61.0687,20.8 63.55,20.8 C66.0313,20.8 68.05,22.8187 68.05,25.3 C68.05,27.7813 66.0313,29.8 63.55,29.8 Z" id="Shape"></path>
                </g>
            </g>
        </g>
    </g>
</svg>