<?xml version="1.0" encoding="UTF-8"?>
<svg width="68px" height="63px" viewBox="0 0 68 63" version="1.1" xmlns="http://www.w3.org/2000/svg" xmlns:xlink="http://www.w3.org/1999/xlink">
    <!-- Generator: Sketch 49.3 (51167) - http://www.bohemiancoding.com/sketch -->
    <title>coding</title>
    <desc>Created with Sketch.</desc>
    <defs></defs>
    <g id="A-Migration-Engineer" stroke="none" stroke-width="1" fill="none" fill-rule="evenodd">
        <g id="A6_Migration-Engineer-V2" transform="translate(-859.000000, -300.000000)" fill="#000000" fill-rule="nonzero">
            <g id="Group-16" transform="translate(273.500000, 228.500000)">
                <g id="coding" transform="translate(586.000000, 72.000000)">
                    <path d="M60.15,1.06945946 L6.55540541,1.06945946 C3.49216216,1.06945946 1,3.56054054 1,6.62243243 L1,11.6910811 L1,42.2567568 L1,47.3251351 C1,50.3878378 3.49216216,52.8797297 6.55540541,52.8797297 L24.1424324,52.8797297 L24.1424324,56.7148649 L17.3159459,56.7148649 C16.1962162,56.7148649 15.2889189,57.6224324 15.2889189,58.7418919 C15.2889189,59.8616216 16.1962162,60.7689189 17.3159459,60.7689189 L26.1694595,60.7689189 L40.5332432,60.7689189 L49.3872973,60.7689189 C50.507027,60.7689189 51.4143243,59.8616216 51.4143243,58.7418919 C51.4143243,57.6224324 50.507027,56.7148649 49.3872973,56.7148649 L42.5602703,56.7148649 L42.5602703,52.8797297 L60.15,52.8797297 C63.2121622,52.8797297 65.7032432,50.3878378 65.7032432,47.3251351 L65.7032432,42.2567568 L65.7032432,11.6910811 L65.7032432,6.62243243 C65.7032432,3.56054054 63.2124324,1.06945946 60.15,1.06945946 Z M6.55540541,5.12351351 L60.1502703,5.12351351 C60.977027,5.12351351 61.6494595,5.79594595 61.6494595,6.62243243 L61.6494595,9.66405405 L5.05405405,9.66405405 L5.05405405,6.62243243 C5.05405405,5.79594595 5.72756757,5.12351351 6.55540541,5.12351351 Z M61.6491892,40.2297297 L5.05405405,40.2297297 L5.05405405,13.7181081 L61.6491892,13.7181081 L61.6491892,40.2297297 Z M38.5062162,56.7148649 L28.1964865,56.7148649 L28.1964865,52.8797297 L38.5062162,52.8797297 L38.5062162,56.7148649 Z M60.15,48.8256757 L40.5332432,48.8256757 L26.1694595,48.8256757 L6.55540541,48.8256757 C5.72756757,48.8256757 5.05405405,48.1527027 5.05405405,47.3251351 L5.05405405,44.2837838 L61.6491892,44.2837838 L61.6491892,47.3251351 C61.6491892,48.1527027 60.9767568,48.8256757 60.15,48.8256757 Z" id="Shape"></path>
                    <path d="M27.6194595,34.7213514 C28.1381081,34.7213514 28.657027,34.5235135 29.0527027,34.1278378 L40.4954054,22.6867568 C41.2872973,21.8951351 41.2872973,20.6116216 40.4956757,19.82 C39.7040541,19.0281081 38.4205405,19.0283784 37.6291892,19.8197297 L26.1864865,31.2608108 C25.3945946,32.0524324 25.3945946,33.3359459 26.1862162,34.1272973 C26.5818919,34.5232432 27.1005405,34.7213514 27.6194595,34.7213514 Z" id="Shape"></path>
                    <path d="M20.53,34.1272973 C20.9259459,34.5232432 21.4445946,34.7210811 21.9635135,34.7210811 C22.4821622,34.7210811 23.0010811,34.5232432 23.3967568,34.1275676 C24.1886486,33.3359459 24.1886486,32.0524324 23.397027,31.2610811 L19.1983784,27.0618919 L23.4213514,22.8391892 C24.212973,22.0472973 24.212973,20.7640541 23.4213514,19.9724324 C22.6294595,19.1810811 21.3462162,19.1810811 20.5545946,19.9724324 L14.8983784,25.6286486 C14.1067568,26.4205405 14.1067568,27.7037838 14.8983784,28.4951351 L20.53,34.1272973 Z" id="Shape"></path>
                    <path d="M43.2848649,34.1272973 C43.6808108,34.5232432 44.1994595,34.7210811 44.7183784,34.7210811 C45.237027,34.7210811 45.7559459,34.5232432 46.1516216,34.1275676 L51.8078378,28.4716216 C52.1881081,28.0913514 52.4016216,27.5759459 52.4016216,27.0381081 C52.4016216,26.5005405 52.1881081,25.9851351 51.8078378,25.6045946 L46.1748649,19.9718919 C45.3832432,19.1802703 44.0997297,19.1802703 43.3083784,19.9721622 C42.5167568,20.7637838 42.5167568,22.0472973 43.3086486,22.8386486 L47.5081081,27.0378378 L43.2854054,31.2602703 C42.4932432,32.0524324 42.4932432,33.3359459 43.2848649,34.1272973 Z" id="Shape"></path>
                </g>
            </g>
        </g>
    </g>
</svg>