<?xml version="1.0" encoding="UTF-8"?>
<svg width="60px" height="72px" viewBox="0 0 60 72" version="1.1" xmlns="http://www.w3.org/2000/svg" xmlns:xlink="http://www.w3.org/1999/xlink">
    <!-- Generator: Sketch 52.5 (67469) - http://www.bohemiancoding.com/sketch -->
    <title>/pin</title>
    <desc>Created with Sketch.</desc>
    <defs>
        <filter x="-100.0%" y="-60.0%" width="300.0%" height="220.0%" filterUnits="objectBoundingBox" id="filter-1">
            <feGaussianBlur stdDeviation="8" in="SourceGraphic"></feGaussianBlur>
        </filter>
    </defs>
    <g id="------Project-Modelling-–-GIS-&amp;-SLD" stroke="none" stroke-width="1" fill="none" fill-rule="evenodd">
        <g id="4.4-/-Settings-/-Edit-Mode-/-T&amp;D-Utility-/-Drop-Pin" transform="translate(-618.000000, -358.000000)">
            <g id="/substations" transform="translate(456.000000, 280.000000)">
                <g id="/pin" transform="translate(172.000000, 80.000000)">
                    <path d="M8,28 C8,25 10.1347336,16.0000495 20.0673668,16.0000495 C30,16.0000495 32,25 32,28 C32,33.3333333 28,42.6666667 20,56 C12,42.6666832 8,33.3333498 8,28 Z M20,22 C16.6862915,22 14,24.6862915 14,28 C14,31.3137085 16.6862915,34 20,34 C23.3137085,34 26,31.3137085 26,28 C26,24.6862915 23.3137085,22 20,22 Z" id="shadow" fill-opacity="0.5" fill="#000000" fill-rule="nonzero" filter="url(#filter-1)"></path>
                    <path d="M0,12 C1.10218348e-16,9 2.13473356,4.95426286e-05 12.0673668,4.95426286e-05 C22,4.95426286e-05 24,9 24,12 C24,17.3333333 20,26.6666667 12,40 C4,26.6666832 0,17.3333498 0,12 Z" id="Rectangle" fill="#848484" fill-rule="nonzero"></path>
                    <rect id="Rectangle" fill="#F4F4F4" x="6" y="6" width="12" height="12" rx="6"></rect>
                </g>
            </g>
        </g>
    </g>
</svg>