<?xml version="1.0" encoding="UTF-8"?>
<svg width="14px" height="16px" viewBox="0 0 14 16" version="1.1" xmlns="http://www.w3.org/2000/svg" xmlns:xlink="http://www.w3.org/1999/xlink">
    <!-- Generator: Sketch 52.5 (67469) - http://www.bohemiancoding.com/sketch -->
    <title>16 / checkmark-circle</title>
    <desc>Created with Sketch.</desc>
    <defs>
        <path d="M8.3,2 L12,5 L12,14 L2,14 L2,2 L8.3,2 Z M9,0 L0,0 L0,16 L14,16 L14,4 L9,0 Z M10,7 L4,7 L4,8 L10,8 L10,7 Z M10,9 L4,9 L4,10 L10,10 L10,9 Z M8,5 L4,5 L4,6 L8,6 L8,5 Z" id="path-1"></path>
    </defs>
    <g id="2-–-Manage-Project" stroke="none" stroke-width="1" fill="none" fill-rule="evenodd">
        <g id="1.1-/-Reliability-Center-/-Project-Manager-Dashboard" transform="translate(-376.000000, -260.000000)">
            <g id="/widgets" transform="translate(24.000000, 180.000000)">
                <g id="/daily-status" transform="translate(0.000000, 4.000000)">
                    <g id="digest_card" transform="translate(16.000000, 56.000000)">
                        <g id="16-/-planning" transform="translate(336.000000, 20.000000)">
                            <g id="--16-/-planning">
                                <mask id="mask-2" fill="white">
                                    <use xlink:href="#path-1"></use>
                                </mask>
                                <use id="Shape" fill="#464646" fill-rule="nonzero" xlink:href="#path-1"></use>
                                <g id="color-grey-100-" mask="url(#mask-2)" fill="#101010">
                                    <rect id="Rectangle" x="0" y="0" width="16" height="16"></rect>
                                </g>
                            </g>
                        </g>
                    </g>
                </g>
            </g>
        </g>
    </g>
</svg>