<?xml version="1.0" encoding="UTF-8"?>
<svg width="321px" height="321px" viewBox="0 0 321 321" version="1.1" xmlns="http://www.w3.org/2000/svg" xmlns:xlink="http://www.w3.org/1999/xlink">
    <!-- Generator: Sketch 49.3 (51167) - http://www.bohemiancoding.com/sketch -->
    <title>Group 3</title>
    <desc>Created with Sketch.</desc>
    <defs></defs>
    <g id="Page-1" stroke="none" stroke-width="1" fill="none" fill-rule="evenodd">
        <g id="risk-matrix-fig" transform="translate(-395.000000, 0.000000)">
            <g id="Group-3" transform="translate(396.000000, 0.000000)">
                <g id="Group-2">
                    <path d="M9.103,9.097 L160,159.89 L160.002,159.893 L310.904,310.897 C312.428898,312.422707 312.884521,314.716788 312.058396,316.709428 C311.23227,318.702068 309.287104,320.000809 307.13,320 L5.333,320 C3.91860046,320 2.56213104,319.438132 1.56199954,318.438 C0.56186803,317.437869 -6.18470615e-14,316.0814 -4.76362068e-14,314.667 L-4.76362068e-14,12.87 C-0.000404217875,10.7130784 1.29848525,8.76828219 3.2910341,7.94241304 C5.28358295,7.1165439 7.57742162,7.57223071 9.103,9.097 Z" id="Shape" fill="#4FB0A0" fill-rule="nonzero"></path>
                    <path d="M12.876,-2.61943531e-14 L314.666,-2.61943531e-14 C316.080573,-0.000265248982 317.437299,0.561485681 318.437647,1.56164594 C319.437995,2.5618062 320,3.91842718 320,5.333 L320,307.124 C320.000404,309.281436 318.700903,311.226591 316.707659,312.052128 C314.714416,312.877666 312.420133,312.420942 310.895,310.895 L9.105,9.105 C7.57918651,7.57999526 7.12239933,5.28595523 7.94768052,3.29280264 C8.77296172,1.29965006 10.7177457,2.68242902e-07 12.875,-6.88269173e-14 L12.876,-2.61943531e-14 Z" id="Shape" fill="#F03040" fill-rule="nonzero"></path>
                    <path d="M5.333,0 L155.582,0 C158.411,0 161.124,1.124 163.124,3.124 L316.876,156.876 C318.876,158.876 320,161.589 320,164.418 L320,314.667 C320,316.0814 319.438132,317.437869 318.438,318.438 C317.437869,319.438132 316.0814,320 314.667,320 L162.209,320 C160.794601,320 159.438131,319.438132 158.438,318.438 L1.562,161.562 C0.562,160.562 0,159.205 0,157.791 L0,5.333 C-1.42108547e-14,2.38766543 2.38766543,0 5.333,0 Z" id="Shape" fill="#FFFBBF" fill-rule="nonzero"></path>
                    <g id="Group" opacity="0.05" stroke-linecap="square" stroke="#000000" stroke-width="1.333">
                        <path d="M63.333,0.667 L63.333,320 M127.333,0.667 L127.333,320 M191.333,0.667 L191.333,320 M255.333,0.667 L255.333,320 M319.333,63.333 L0,63.333 M319.333,127.333 L0,127.333 M319.333,191.333 L0,191.333 M319.333,255.333 L0,255.333" id="Shape"></path>
                        <g id="Shape">
                            <path d="M31.333,0.667 L31.333,320 M95.333,0.667 L95.333,320 M159.333,0.667 L159.333,320 M223.333,0.667 L223.333,320 M287.333,0.667 L287.333,320 M319.333,31.333 L0,31.333 M319.333,95.333 L0,95.333 M319.333,159.333 L0,159.333 M319.333,223.333 L0,223.333 M319.333,287.333 L0,287.333"></path>
                        </g>
                    </g>
                </g>
                <path d="M76,273.333 L84,273.333 L80.001,266.667 L76,273.333 Z M44,241.333 L52,241.333 L48.001,234.667 L44,241.333 Z M268,49.333 L276,49.333 L272.001,42.667 L268,49.333 Z" id="Shape" fill="#FFFFFF" fill-rule="nonzero"></path>
                <path d="M140,177.333 L148,177.333 L144.001,170.667 L140,177.333 Z M172,241.333 L180,241.333 L176.001,234.667 L172,241.333 Z M236,273.333 L244,273.333 L240.001,266.667 L236,273.333 Z M236,177.333 L244,177.333 L240.001,170.667 L236,177.333 Z M108,49.333 L116,49.333 L112.001,42.667 L108,49.333 Z M44,113.333 L52,113.333 L48.001,106.667 L44,113.333 Z" id="Shape" fill="#464646" fill-rule="nonzero"></path>
            </g>
        </g>
    </g>
</svg>