<svg xmlns="http://www.w3.org/2000/svg" xmlns:xlink="http://www.w3.org/1999/xlink" width="24" height="24" viewBox="0 0 24 24">
    <defs>
        <path id="a" d="M19.45 12c1.96 0 3.55 2.18 3.55 4.86V21H10v-4.14c0-2.68 1.55-4.86 3.55-4.86h5.9zm-14.9 0H9.6A7.75 7.75 0 0 0 8 16.86V21H1v-4.14C1 14.18 2.59 12 4.55 12zm2.88-9h.01a3.49 3.49 0 0 1 3.48 3.5v.01A3.5 3.5 0 1 1 7.43 3zm9.1 7h-.07A3.48 3.48 0 0 1 13 6.5a3.5 3.5 0 1 1 3.53 3.5z"/>
    </defs>
    <g fill="none" fill-rule="evenodd">
        <mask id="b" fill="#fff">
            <use xlink:href="#a"/>
        </mask>
        <use fill="#262626" xlink:href="#a"/>
        <g fill="#5548FF" mask="url(#b)">
            <path d="M0 0h24v24H0z"/>
        </g>
    </g>
</svg>
