<svg xmlns="http://www.w3.org/2000/svg" xmlns:xlink="http://www.w3.org/1999/xlink" width="24" height="24" viewBox="0 0 24 24">
  <path fill="black" id="a" d="M12 15.93a3.93 3.93 0 1 1 .001-7.861A3.93 3.93 0 0 1 12 15.93zm11-2.36v-3.14l-2.63-.57a9.071 9.071 0 0 0-.94-2.27l1.46-2.26-2.22-2.22-2.26 1.46a9.071 9.071 0 0 0-2.27-.94L13.57 1h-3.14l-.57 2.63a9.056 9.056 0 0 0-2.27.94L5.33 3.11 3.11 5.33l1.46 2.26a9.071 9.071 0 0 0-.94 2.27L1 10.43v3.14l2.63.57c.209.796.525 1.56.94 2.27l-1.46 2.26 2.22 2.22 2.26-1.46c.71.415 1.474.731 2.27.94l.57 2.63h3.14l.57-2.63a9.071 9.071 0 0 0 2.27-.94l2.26 1.46 2.22-2.22-1.46-2.26c.415-.71.731-1.474.94-2.27l2.63-.57z"/>
</svg>
