<svg viewBox="0 0 16 16" version="1.1" xmlns="http://www.w3.org/2000/svg" xmlns:xlink="http://www.w3.org/1999/xlink">
  <path d="M8.28366873,0.208056478 L9.97786426,5.33942486 C10.0207174,5.46920655 10.1403077,5.55705877 10.2768399,5.55905541 L15.668368,5.55905541 C15.8387842,5.54707556 15.9862788,5.67486061 15.9992345,5.84557345 C16.0072071,5.95838369 15.9523949,6.06720064 15.8587159,6.12809821 L11.4627768,9.30275802 C11.3551456,9.38761528 11.3112958,9.53137346 11.3531524,9.66215347 L13.0174503,14.7935218 C13.0652864,14.9632364 12.9666245,15.1399391 12.7972049,15.1878585 C12.705519,15.2138149 12.6078537,15.1978417 12.5291234,15.1429341 L8.17404432,11.9682743 C8.06043356,11.8884086 7.90895255,11.8884086 7.79534179,11.9682743 L3.44026271,15.1429341 C3.27881584,15.2118182 3.09145775,15.1359458 3.02269334,14.9732196 C2.99877529,14.9163153 2.9908026,14.8544194 3.00176504,14.7935218 L4.666063,9.66215347 C4.70791959,9.53137346 4.66506641,9.38761528 4.55643858,9.30275802 L0.141564367,6.12809821 C-0.00194395925,6.03525438 -0.0428039689,5.84457513 0.0488819064,5.70081695 C0.109673628,5.60497816 0.218301459,5.55106884 0.330915632,5.55905541 L5.72244374,5.55905541 C5.84801352,5.54607724 5.9536516,5.45922334 5.99152185,5.33942486 L7.68571737,0.208056478 C7.74750568,0.0423352423 7.93087743,-0.0415236962 8.09631064,0.0203721869 C8.18301359,0.0523184492 8.25177799,0.121202577 8.28366873,0.208056478" id="path-1"></path>
</svg>