<?xml version="1.0" encoding="UTF-8"?>
<svg width="32px" height="48px" viewBox="-4.0 0.0 32 48" version="1.1" xmlns="http://www.w3.org/2000/svg" xmlns:xlink="http://www.w3.org/1999/xlink">
    <!-- Generator: Sketch 52.5 (67469) - http://www.bohemiancoding.com/sketch -->
    <title>current-transformer-ansi</title>
    <desc>Created with Sketch.</desc>
    <g id="Project-Modelling-–-GIS-&amp;-SLD" stroke="none" stroke-width="1" fill="none" fill-rule="evenodd" opacity="1">
        <g id="Artboard" transform="translate(-2404.000000, -1488.000000)" stroke="#ff000f">
            <g id="32-/-sld-/-vertical-/-box-icon-/-normal-copy-13" transform="translate(2400.000000, 1480.000000)">
                <g id="sld-/-ansi-/-current_auto_transformer-/-black" transform="translate(4.000000, 8.000000)">
                    <path d="M12,38.5 L12,48" id="Path" fill-rule="nonzero"></path>
                    <path d="M12,0 L12,9.5" id="Path" fill-rule="nonzero"></path>
                    <path d="M17,31.5 C16.3333333,26.1666667 14.6666667,23.5 12,23.5 C9.33333333,23.5 7.66666667,26.1666667 7,31.5" id="Path-10" stroke-linecap="round" fill-rule="nonzero" transform="translate(12.000000, 27.500000) scale(-1, 1) rotate(90.000000) translate(-12.000000, -27.500000) "></path>
                    <path d="M17,24.5 C16.3333333,19.1666667 14.6666667,16.5 12,16.5 C9.33333333,16.5 7.66666667,19.1666667 7,24.5" id="Path-10" stroke-linecap="round" fill-rule="nonzero" transform="translate(12.000000, 20.500000) scale(-1, 1) rotate(90.000000) translate(-12.000000, -20.500000) "></path>
                    <path d="M17,17.5 C16.3333333,12.1666667 14.6666667,9.5 12,9.5 C9.33333333,9.5 7.66666667,12.1666667 7,17.5" id="Path-10" stroke-linecap="round" fill-rule="nonzero" transform="translate(12.000000, 13.500000) scale(-1, 1) rotate(90.000000) translate(-12.000000, -13.500000) "></path>
                    <path d="M17,38.5 C16.3333333,33.1666667 14.6666667,30.5 12,30.5 C9.33333333,30.5 7.66666667,33.1666667 7,38.5" id="Path-10" stroke-linecap="round" fill-rule="nonzero" transform="translate(12.000000, 34.500000) scale(-1, 1) rotate(90.000000) translate(-12.000000, -34.500000) "></path>
                    <path d="M14,27.5 C14.8440646,27.5 15.5,26.9377696 15.5,26.2857143 C15.5,24.7999818 14.4289748,20.5 14,20.5 C13.5710252,20.5 12.5,24.7999818 12.5,26.2857143 C12.5,26.9377696 13.1559354,27.5 14,27.5 Z" id="Oval" transform="translate(14.000000, 24.000000) scale(-1, 1) rotate(90.000000) translate(-14.000000, -24.000000) "></path>
                    <path d="M14,34.5 C14.8440646,34.5 15.5,33.9377696 15.5,33.2857143 C15.5,31.7999818 14.4289748,27.5 14,27.5 C13.5710252,27.5 12.5,31.7999818 12.5,33.2857143 C12.5,33.9377696 13.1559354,34.5 14,34.5 Z" id="Oval" transform="translate(14.000000, 31.000000) scale(-1, 1) rotate(90.000000) translate(-14.000000, -31.000000) "></path>
                    <path d="M14,20.5 C14.8440646,20.5 15.5,19.9377696 15.5,19.2857143 C15.5,17.7999818 14.4289748,13.5 14,13.5 C13.5710252,13.5 12.5,17.7999818 12.5,19.2857143 C12.5,19.9377696 13.1559354,20.5 14,20.5 Z" id="Oval" transform="translate(14.000000, 17.000000) scale(-1, 1) rotate(90.000000) translate(-14.000000, -17.000000) "></path>
                    <path d="M18,24 L23.5,24" id="Path-Copy" stroke-linecap="round" fill-rule="nonzero"></path>
                </g>
            </g>
        </g>
    </g>
</svg>