<?xml version="1.0" encoding="UTF-8"?>
<svg width="32px" height="48px" viewBox="-3.0 0.0 32 48" version="1.1" xmlns="http://www.w3.org/2000/svg" xmlns:xlink="http://www.w3.org/1999/xlink">
    <!-- Generator: Sketch 52.5 (67469) - http://www.bohemiancoding.com/sketch -->
    <title>current-transformer-brushing-ansi</title>
    <desc>Created with Sketch.</desc>
    <g id="Project-Modelling-–-GIS-&amp;-SLD" stroke="none" stroke-width="1" fill="none" fill-rule="evenodd" opacity="1">
        <g id="Artboard" transform="translate(-2403.000000, -1668.000000)" stroke="#ff000f">
            <g id="32-/-sld-/-vertical-/-box-icon-/-normal-copy-14" transform="translate(2400.000000, 1660.000000)">
                <g id="sld-/-ansi-/-current_transformer-/-black" transform="translate(4.000000, 8.000000)">
                    <path d="M12,0 L12,48.5" id="Path" fill-rule="nonzero"></path>
                    <path d="M22.5,31.5 C21.8333333,26.1666667 19.1666667,23.5 14.5,23.5 C9.83333333,23.5 7.16666667,27.1666667 6.5,34.5" id="Path-10" stroke-linecap="round" fill-rule="nonzero" transform="translate(14.500000, 29.000000) rotate(90.000000) translate(-14.500000, -29.000000) "></path>
                    <path d="M22.5,24.5 C21.8256836,17.1666667 19.1590169,13.5 14.5,13.5 C9.84098307,13.5 7.17431641,16.1666667 6.5,21.5" id="Path-10" stroke-linecap="round" fill-rule="nonzero" transform="translate(14.500000, 19.000000) rotate(90.000000) translate(-14.500000, -19.000000) "></path>
                    <path d="M11.5,11 L5,11" id="Path" stroke-linecap="round" fill-rule="nonzero"></path>
                    <path d="M11.5,37 L-0.5,37" id="Path-Copy" stroke-linecap="round" fill-rule="nonzero"></path>
                    <path d="M11.25,29.7493134 C13.7272797,29.7493134 14.2506866,27.5454206 14.2506866,26.2436066 C14.2506866,24.9417925 13.2506866,18.2493134 11.2506866,18.2493134 C9.25068665,18.2493134 8.24931335,24.9417925 8.24931335,26.2436066 C8.24931335,27.5454206 8.77272034,29.7493134 11.25,29.7493134 Z" id="Oval" transform="translate(11.250000, 23.999313) rotate(90.000000) translate(-11.250000, -23.999313) "></path>
                </g>
            </g>
        </g>
    </g>
</svg>