<?xml version="1.0" encoding="UTF-8"?>
<svg width="32px" height="48px" viewBox="-3.0 0.0 32 48" version="1.1" xmlns="http://www.w3.org/2000/svg" xmlns:xlink="http://www.w3.org/1999/xlink">
    <!-- Generator: Sketch 52.5 (67469) - http://www.bohemiancoding.com/sketch -->
    <title>line-trap</title>
    <desc>Created with Sketch.</desc>
    <g id="Project-Modelling-–-GIS-&amp;-SLD" stroke="none" stroke-width="1" fill="none" fill-rule="evenodd" opacity="1">
        <g id="Artboard" transform="translate(-423.000000, -2148.000000)" stroke="#ff000f">
            <g id="32-/-sld-/-vertical-/-box-icon-/-normal" transform="translate(420.000000, 2140.000000)">
                <g id="sld-/-multi-/-linetrap-/-black" transform="translate(4.000000, 8.000000)">
                    <polyline id="Path" stroke-linecap="round" fill-rule="nonzero" transform="translate(11.500000, 33.000000) rotate(90.000000) translate(-11.500000, -33.000000) " points="4.5 39.5 18.5 39.5 18.5 26.5"></polyline>
                    <path d="M10,28 C8.61111111,26.6666667 6.94444444,26 5,26 C3.05555556,26 1.38888889,26.6666667 0,28" id="Path-10" fill-rule="nonzero"></path>
                    <path d="M26,30 C25.2,27.3333333 23.2,26 20,26 C16.8,26 14.8,27.3333333 14,30" id="Path" stroke-linecap="round" fill-rule="nonzero" transform="translate(20.000000, 28.000000) rotate(90.000000) translate(-20.000000, -28.000000) "></path>
                    <path d="M25,37 C24.3333333,34.3333333 22.6666667,33 20,33 C17.3333333,33 15.6666667,34.3333333 15,37" id="Path" stroke-linecap="round" fill-rule="nonzero" transform="translate(20.000000, 35.000000) rotate(90.000000) translate(-20.000000, -35.000000) "></path>
                    <path d="M26,22 C25.2,19.3333333 23.2,18 20,18 C16.8,18 14.8,19.3333333 14,22" id="Path" stroke-linecap="round" fill-rule="nonzero" transform="translate(20.000000, 20.000000) rotate(90.000000) translate(-20.000000, -20.000000) "></path>
                    <polyline id="Path" stroke-linecap="round" fill-rule="nonzero" transform="translate(11.500000, 15.000000) rotate(90.000000) translate(-11.500000, -15.000000) " points="4.5 8.5 4.5 21.5 18.5 21.5"></polyline>
                    <path d="M18,18.5 C19.1156286,18.5 20,17.7040658 20,16.75 C20,15.4609003 18.8658054,13.5 18,13.5 C17.1341946,13.5 16,15.4609003 16,16.75 C16,17.7040658 16.8843714,18.5 18,18.5 Z" id="Oval" transform="translate(18.000000, 16.000000) rotate(90.000000) translate(-18.000000, -16.000000) "></path>
                    <path d="M18,26.5 C19.1156286,26.5 20,25.7040658 20,24.75 C20,23.4609003 18.8658054,21.5 18,21.5 C17.1341946,21.5 16,23.4609003 16,24.75 C16,25.7040658 16.8843714,26.5 18,26.5 Z" id="Oval" transform="translate(18.000000, 24.000000) rotate(90.000000) translate(-18.000000, -24.000000) "></path>
                    <path d="M18,34.5 C19.1156286,34.5 20,33.7040658 20,32.75 C20,31.4609003 18.8658054,29.5 18,29.5 C17.1341946,29.5 16,31.4609003 16,32.75 C16,33.7040658 16.8843714,34.5 18,34.5 Z" id="Oval" transform="translate(18.000000, 32.000000) rotate(90.000000) translate(-18.000000, -32.000000) "></path>
                    <path d="M5,17 L5,27" id="Path" fill-rule="nonzero" transform="translate(5.000000, 22.000000) rotate(90.000000) translate(-5.000000, -22.000000) "></path>
                    <path d="M12,39.5 L12,48" id="Path" fill-rule="nonzero"></path>
                    <path d="M12,0 L12,8.5" id="Path" fill-rule="nonzero"></path>
                    <path d="M25,15 C24.3333333,12.3333333 22.6666667,11 20,11 C17.3333333,11 15.6666667,12.3333333 15,15" id="Path" stroke-linecap="round" fill-rule="nonzero" transform="translate(20.000000, 13.000000) rotate(90.000000) translate(-20.000000, -13.000000) "></path>
                </g>
            </g>
        </g>
    </g>
</svg>