<?xml version="1.0" encoding="UTF-8"?>
<svg width="16px" height="20px" viewBox="0 0 16 20" version="1.1" xmlns="http://www.w3.org/2000/svg" xmlns:xlink="http://www.w3.org/1999/xlink">
    <!-- Generator: Sketch 52.5 (67469) - http://www.bohemiancoding.com/sketch -->
    <title>copy-white</title>
    <desc>Created with Sketch.</desc>
    <defs>
        <path d="M13,13 L13,16 L0,16 L0,6 L4,6 L4,8 L2,8 L2,14 L11,14 L11,13 L13,13 Z M6,11 L6,10 L5,10 L5,12 L7,12 L7,11 L6,11 Z M6,7 L5,7 L5,9 L6,9 L6,7 Z M6,5 L7,5 L7,4 L5,4 L5,6 L6,6 L6,5 Z M10,5 L10,4 L8,4 L8,5 L10,5 Z M13,5 L13,4 L11,4 L11,5 L13,5 Z M8,11 L8,12 L10,12 L10,11 L8,11 Z M14,4 L14,5 L15,5 L15,6 L16,6 L16,4 L14,4 Z M15,9 L16,9 L16,7 L15,7 L15,9 Z M11,11 L11,12 L13,12 L13,11 L11,11 Z M15,11 L14,11 L14,12 L16,12 L16,10 L15,10 L15,11 Z" id="path-1"></path>
    </defs>
    <g id="Project-Modelling-–-GIS-&amp;-SLD" stroke="none" stroke-width="1" fill="none" fill-rule="evenodd" opacity="1">
        <g id="5.7-/-Settings-/-Edit-Mode-/-SLD-Modelling-/-Edit-on-Right-Click" transform="translate(-680.000000, -350.000000)">
            <g id="/right-click-(non-switchable)" transform="translate(536.000000, 264.000000)">
                <g id="/right-click/non-switchable" transform="translate(24.000000, 80.000000)">
                    <g id="32-/-combo-box-/-filled-/-dark">
                        <g id="16-/-copy" transform="translate(120.000000, 8.000000)">
                            <g transform="translate(0.000000, -2.000000)">
                                <mask id="mask-2" fill="white">
                                    <use xlink:href="#path-1"></use>
                                </mask>
                                <use id="Shape" fill="#464646" fill-rule="nonzero" xlink:href="#path-1"></use>
                                <g id="color-grey-0" mask="url(#mask-2)" fill="#FFFFFF">
                                    <rect id="Rectangle" x="0" y="0" width="16" height="20"></rect>
                                </g>
                            </g>
                        </g>
                    </g>
                </g>
            </g>
        </g>
    </g>
</svg>