<?xml version="1.0" encoding="UTF-8"?>
<svg width="16px" height="16px" viewBox="0 0 16 16" version="1.1" xmlns="http://www.w3.org/2000/svg" xmlns:xlink="http://www.w3.org/1999/xlink">
    <!-- Generator: Sketch 52.5 (67469) - http://www.bohemiancoding.com/sketch -->
    <title>cut-white</title>
    <desc>Created with Sketch.</desc>
    <defs>
        <path d="M16,3.55 C16,3.55 14.74,2.39 11.74,3.42 L6.55,5.21 L5.65,4.9 C6.44585924,4.46962432 6.95811871,3.65380369 7,2.75 C7,1.23 5.43,0 3.5,0 C1.57,0 0,1.23 0,2.75 C0,3.95 0.87,4.83 2.34,5.33 L4.26,6 L2.34,6.67 C0.87,7.17 0,8.05 0,9.25 C0,10.77 1.57,12 3.5,12 C5.43,12 7,10.77 7,9.25 C6.96016924,8.34827575 6.45200036,7.53293017 5.66,7.1 L6.56,6.79 L11.74,8.58 C14.74,9.58 16,8.45 16,8.45 L8.87,6 L16,3.55 Z M1.5,2.75 C1.5,2.16 2.32,1.5 3.5,1.5 C4.68,1.5 5.5,2.16 5.5,2.75 C5.5,3.34 4.68,4 3.5,4 C2.32,4 1.5,3.34 1.5,2.75 Z M3.5,10.5 C2.32,10.5 1.5,9.84 1.5,9.25 C1.5,8.66 2.32,8 3.5,8 C4.68,8 5.5,8.66 5.5,9.25 C5.5,9.84 4.68,10.5 3.5,10.5 Z" id="path-1"></path>
    </defs>
    <g id="Project-Modelling-–-GIS-&amp;-SLD" stroke="none" stroke-width="1" fill="none" fill-rule="evenodd" opacity="1">
        <g id="5.7-/-Settings-/-Edit-Mode-/-SLD-Modelling-/-Edit-on-Right-Click" transform="translate(-680.000000, -384.000000)">
            <g id="/right-click-(non-switchable)" transform="translate(536.000000, 264.000000)">
                <g id="/right-click/non-switchable" transform="translate(24.000000, 80.000000)">
                    <g id="32-/-combo-box-/-filled-/-dark" transform="translate(0.000000, 32.000000)">
                        <g id="16-/-cut" transform="translate(120.000000, 8.000000)">
                            <g transform="translate(0.000000, 2.000000)">
                                <mask id="mask-2" fill="white">
                                    <use xlink:href="#path-1"></use>
                                </mask>
                                <use id="Shape" fill="#464646" fill-rule="nonzero" xlink:href="#path-1"></use>
                                <g id="color-grey-0" mask="url(#mask-2)" fill="#FFFFFF">
                                    <g transform="translate(0.000000, -4.000000)" id="Rectangle">
                                        <rect x="0" y="0" width="16" height="20"></rect>
                                    </g>
                                </g>
                            </g>
                        </g>
                    </g>
                </g>
            </g>
        </g>
    </g>
</svg>