<?xml version="1.0" encoding="UTF-8"?>
<svg width="16px" height="16px" viewBox="0 0 16 16" version="1.1" xmlns="http://www.w3.org/2000/svg" xmlns:xlink="http://www.w3.org/1999/xlink">
    <!-- Generator: Sketch 52.5 (67469) - http://www.bohemiancoding.com/sketch -->
    <title>load-white</title>
    <desc>Created with Sketch.</desc>
    <defs>
        <path d="M6,7 L14,7 L14,3 L11,0 L0,0 L0,14 L6,14 L6,12 L2,12 L2,7 L6,7 Z M3,1 L8,1 L8,4 L10,4 L10,1 L11,1 L11,5 L3,5 L3,1 Z M15,12 L11,8 L7,12 L10,12 L10,15 L12,15 L12,12 L15,12 Z" id="path-1"></path>
    </defs>
    <g id="Project-Modelling-–-GIS-&amp;-SLD" stroke="none" stroke-width="1" fill="none" fill-rule="evenodd" opacity="1">
        <g id="5.6-/-Settings-/-Edit-Mode-/-SLD-Modelling-/-Import&amp;Export" transform="translate(-288.000000, -120.000000)">
            <g id="/menu" transform="translate(16.000000, 104.000000)">
                <g id="/import&amp;export">
                    <g id="32-/-combo-box-/-filled" transform="translate(72.000000, 0.000000)">
                        <g id="16-/-open" transform="translate(200.000000, 16.000000)">
                            <g transform="translate(1.000000, 1.000000)">
                                <mask id="mask-2" fill="white">
                                    <use xlink:href="#path-1"></use>
                                </mask>
                                <use id="Shape" fill="#464646" fill-rule="nonzero" xlink:href="#path-1"></use>
                                <g id="color-grey-0" mask="url(#mask-2)" fill="#FFFFFF">
                                    <g transform="translate(-1.000000, -1.000000)" id="Rectangle">
                                        <rect x="0" y="0" width="16" height="16"></rect>
                                    </g>
                                </g>
                            </g>
                        </g>
                    </g>
                </g>
            </g>
        </g>
    </g>
</svg>