<?xml version="1.0" encoding="UTF-8"?>
<svg width="16px" height="16px" viewBox="0 0 16 16" version="1.1" xmlns="http://www.w3.org/2000/svg" xmlns:xlink="http://www.w3.org/1999/xlink">
    <!-- Generator: Sketch 52.5 (67469) - http://www.bohemiancoding.com/sketch -->
    <title>print-white</title>
    <desc>Created with Sketch.</desc>
    <defs>
        <path d="M5,12 L11,12 L11,13 L5,13 L5,12 Z M13,1 L3,1 L3,3 L13,3 L13,1 Z M16,10 L14,10 L14,15 L2,15 L2,10 L0,10 L0,4 L16,4 L16,10 Z M13,10 L13,8 L3,8 L3,14 L13,14 L13,10 Z M5,11 L11,11 L11,10 L5,10 L5,11 Z" id="path-1"></path>
    </defs>
    <g id="Project-Modelling-–-GIS-&amp;-SLD" stroke="none" stroke-width="1" fill="none" fill-rule="evenodd" opacity="1">
        <g id="5.6-/-Settings-/-Edit-Mode-/-SLD-Modelling-/-Import&amp;Export" transform="translate(-288.000000, -456.000000)">
            <g id="/menu" transform="translate(16.000000, 104.000000)">
                <g id="/import&amp;export">
                    <g id="32-/-combo-box-/-filled" transform="translate(72.000000, 336.000000)">
                        <g id="16-/-print" transform="translate(200.000000, 16.000000)">
                            <g>
                                <mask id="mask-2" fill="white">
                                    <use xlink:href="#path-1"></use>
                                </mask>
                                <use id="Shape" fill="#464646" fill-rule="nonzero" xlink:href="#path-1"></use>
                                <g id="color-grey-0" mask="url(#mask-2)" fill="#FFFFFF">
                                    <rect id="Rectangle" x="0" y="0" width="16" height="16"></rect>
                                </g>
                            </g>
                        </g>
                    </g>
                </g>
            </g>
        </g>
    </g>
</svg>