<?xml version="1.0" encoding="UTF-8"?>
<svg width="16px" height="16px" viewBox="0 0 16 16" version="1.1" xmlns="http://www.w3.org/2000/svg" xmlns:xlink="http://www.w3.org/1999/xlink">
    <!-- Generator: Sketch 52.5 (67469) - http://www.bohemiancoding.com/sketch -->
    <title>select-all-white</title>
    <desc>Created with Sketch.</desc>
    <defs>
        <path d="M0,0 L1,0 L1,2 L0,2 L0,0 Z M13,12 L14,12 L14,14 L13,14 L13,12 Z M2,0 L3,0 L3,1 L2,1 L2,0 Z M4,0 L5,0 L5,1 L4,1 L4,0 Z M6,0 L7,0 L7,1 L6,1 L6,0 Z M8,0 L9,0 L9,1 L8,1 L8,0 Z M12,0 L14,0 L14,1 L12,1 L12,0 Z M0,13 L2,13 L2,14 L0,14 L0,13 Z M10,0 L11,0 L11,1 L10,1 L10,0 Z M3,13 L4,13 L4,14 L3,14 L3,13 Z M5,13 L6,13 L6,14 L5,14 L5,13 Z M7,13 L8,13 L8,14 L7,14 L7,13 Z M9,13 L10,13 L10,14 L9,14 L9,13 Z M11,13 L12,13 L12,14 L11,14 L11,13 Z M13,2 L14,2 L14,3 L13,3 L13,2 Z M13,4 L14,4 L14,5 L13,5 L13,4 Z M13,6 L14,6 L14,7 L13,7 L13,6 Z M13,8 L14,8 L14,9 L13,9 L13,8 Z M13,10 L14,10 L14,11 L13,11 L13,10 Z M0,3 L1,3 L1,4 L0,4 L0,3 Z M0,5 L1,5 L1,6 L0,6 L0,5 Z M0,7 L1,7 L1,8 L0,8 L0,7 Z M0,9 L1,9 L1,10 L0,10 L0,9 Z M0,11 L1,11 L1,12 L0,12 L0,11 Z" id="path-1"></path>
        <mask id="mask-2" maskContentUnits="userSpaceOnUse" maskUnits="objectBoundingBox" x="0" y="0" width="14" height="14" fill="white">
            <use xlink:href="#path-1"></use>
        </mask>
        <mask id="mask-4" maskContentUnits="userSpaceOnUse" maskUnits="objectBoundingBox" x="0" y="0" width="14" height="14" fill="white">
            <use xlink:href="#path-1"></use>
        </mask>
        <path d="M3,3 L6,3 L6,6 L3,6 L3,3 Z M8,3 L11,3 L11,6 L8,6 L8,3 Z M3,8 L6,8 L6,11 L3,11 L3,8 Z M8,8 L11,8 L11,11 L8,11 L8,8 Z" id="path-5"></path>
    </defs>
    <g id="Project-Modelling-–-GIS-&amp;-SLD" stroke="none" stroke-width="1" fill="none" fill-rule="evenodd" opacity="1">
        <g id="5.7-/-Settings-/-Edit-Mode-/-SLD-Modelling-/-Edit-on-Right-Click" transform="translate(-680.000000, -480.000000)">
            <g id="/right-click-(non-switchable)" transform="translate(536.000000, 264.000000)">
                <g id="/right-click/non-switchable" transform="translate(24.000000, 80.000000)">
                    <g id="32-/-combo-box-/-filled-/-dark" transform="translate(0.000000, 128.000000)">
                        <g id="16-/-select-all" transform="translate(120.000000, 8.000000)">
                            <g transform="translate(1.000000, 1.000000)">
                                <mask id="mask-3" fill="white">
                                    <use xlink:href="#path-1"></use>
                                </mask>
                                <g id="Combined-Shape" stroke="#000000" mask="url(#mask-2)" stroke-width="2" stroke-dasharray="1" fill-rule="nonzero">
                                    <use mask="url(#mask-4)" xlink:href="#path-1"></use>
                                </g>
                                <g id="color-grey-0" mask="url(#mask-3)" fill="#FFFFFF">
                                    <g transform="translate(-1.000000, -1.000000)" id="Rectangle">
                                        <rect x="0" y="0" width="16" height="16"></rect>
                                    </g>
                                </g>
                                <mask id="mask-6" fill="white">
                                    <use xlink:href="#path-5"></use>
                                </mask>
                                <use id="Combined-Shape" fill="#000000" fill-rule="nonzero" xlink:href="#path-5"></use>
                                <g id="color-grey-0" mask="url(#mask-6)" fill="#FFFFFF">
                                    <g transform="translate(-1.000000, -1.000000)" id="Rectangle">
                                        <rect x="0" y="0" width="16" height="16"></rect>
                                    </g>
                                </g>
                            </g>
                        </g>
                    </g>
                </g>
            </g>
        </g>
    </g>
</svg>