<?xml version="1.0" encoding="UTF-8"?>
<svg width="16px" height="16px" viewBox="0 0 16 16" version="1.1" xmlns="http://www.w3.org/2000/svg" xmlns:xlink="http://www.w3.org/1999/xlink">
    <!-- Generator: Sketch 52.5 (67469) - http://www.bohemiancoding.com/sketch -->
    <title>trash-white</title>
    <desc>Created with Sketch.</desc>
    <defs>
        <path d="M2,4 L2,16 L14,16 L14,4 L2,4 Z M12,14 L11,14 L11,6 L12,6 L12,14 Z M5,14 L4,14 L4,6 L5,6 L5,14 Z M9,14 L7,14 L7,6 L9,6 L9,14 Z M10,2 L10,0 L6,0 L6,2 L1,2 L1,3 L15,3 L15,2 L10,2 Z M7,2 L7,1 L9,1 L9,2 L7,2 Z" id="path-1"></path>
    </defs>
    <g id="Project-Modelling-–-GIS-&amp;-SLD" stroke="none" stroke-width="1" fill="none" fill-rule="evenodd" opacity="1">
        <g id="5.7-/-Settings-/-Edit-Mode-/-SLD-Modelling-/-Edit-on-Right-Click" transform="translate(-680.000000, -416.000000)">
            <g id="/right-click-(non-switchable)" transform="translate(536.000000, 264.000000)">
                <g id="/right-click/non-switchable" transform="translate(24.000000, 80.000000)">
                    <g id="32-/-combo-box-/-filled-/-dark" transform="translate(0.000000, 64.000000)">
                        <g id="16-/-trash" transform="translate(120.000000, 8.000000)">
                            <g>
                                <mask id="mask-2" fill="white">
                                    <use xlink:href="#path-1"></use>
                                </mask>
                                <use id="Trash" fill="#101010" fill-rule="nonzero" xlink:href="#path-1"></use>
                                <g id="color-grey-0" mask="url(#mask-2)" fill="#FFFFFF">
                                    <rect id="Rectangle" x="0" y="0" width="16" height="16"></rect>
                                </g>
                            </g>
                        </g>
                    </g>
                </g>
            </g>
        </g>
    </g>
</svg>