<?xml version="1.0" encoding="UTF-8"?>
<svg width="16px" height="16px" viewBox="0 0 16 16" version="1.1" xmlns="http://www.w3.org/2000/svg" xmlns:xlink="http://www.w3.org/1999/xlink">
    <!-- Generator: Sketch 52.5 (67469) - http://www.bohemiancoding.com/sketch -->
    <title>view</title>
    <desc>Created with Sketch.</desc>
    <defs>
        <path d="M8,11 C6.34314575,11 5,9.65685425 5,8 C5,6.34314575 6.34314575,5 8,5 C9.65685425,5 11,6.34314575 11,8 C11,9.65685425 9.65685425,11 8,11 Z M8,13 C3.72,13 0.36,8.49 0.22,8.3 L0,8 L0.22,7.7 C0.36,7.51 3.72,3 8,3 C12.28,3 15.64,7.51 15.78,7.7 L16,8 L15.78,8.3 C15.64,8.49 12.28,13 8,13 Z M1.26,8 C2.06,9 4.82,12 8,12 C11.18,12 13.94,9 14.74,8 C13.94,7 11.18,4 8,4 C4.82,4 2.06,7 1.26,8 Z" id="path-1"></path>
    </defs>
    <g id="Project-Modelling-–-GIS-&amp;-SLD" stroke="none" stroke-width="1" fill="none" fill-rule="evenodd" opacity="1">
        <g id="5.X-/-Settings-/-Edit-Mode-/-SLD-Modelling-/-Defining-Outage" transform="translate(-28.000000, -176.000000)">
            <g id="/controls-left" transform="translate(16.000000, 104.000000)">
                <g id="/zoom" transform="translate(0.000000, 56.000000)">
                    <g id="32-/-normal-/-box-icon-/-normal" transform="translate(8.000000, 8.000000)">
                        <g id="16-/-view" transform="translate(4.000000, 8.000000)">
                            <g>
                                <mask id="mask-2" fill="white">
                                    <use xlink:href="#path-1"></use>
                                </mask>
                                <use id="Shape" fill="#464646" fill-rule="nonzero" xlink:href="#path-1"></use>
                                <g id="color-background-icon-regular" mask="url(#mask-2)" fill="#000000">
                                    <rect id="Rectangle" x="0" y="0" width="16" height="16"></rect>
                                </g>
                            </g>
                        </g>
                    </g>
                </g>
            </g>
        </g>
    </g>
</svg>