<?xml version="1.0" encoding="UTF-8"?>
<svg width="32px" height="48px" viewBox="-3.0 0.0 32 48" version="1.1" xmlns="http://www.w3.org/2000/svg" xmlns:xlink="http://www.w3.org/1999/xlink">
    <!-- Generator: Sketch 52.5 (67469) - http://www.bohemiancoding.com/sketch -->
    <title>combined-disconnect-ground-switch-closed-ansi</title>
    <desc>Created with Sketch.</desc>
    <g id="Project-Modelling-–-GIS-&amp;-SLD" stroke="none" stroke-width="1" fill="none" fill-rule="evenodd" opacity="1">
        <g id="Artboard" transform="translate(-2603.000000, -928.000000)" fill-rule="nonzero" stroke="#f0b900">
            <g id="32-/-sld-/-vertical-/-box-icon-/-normal-copy-6" transform="translate(2600.000000, 920.000000)">
                <g id="sld-/-ansi-/-combined-disconnector-switch-(closed)---ground-switch-/-black" transform="translate(4.000000, 8.000000)">
                    <path d="M6,11 L6,23" id="Path"></path>
                    <path d="M20,0 L20,10.5" id="Path"></path>
                    <path d="M18,8 L18,13" id="Path" transform="translate(18.000000, 10.500000) rotate(90.000000) translate(-18.000000, -10.500000) "></path>
                    <path d="M16,10.5 L16,19" id="Path"></path>
                    <polyline id="Path-11" transform="translate(3.000000, 8.500000) scale(1, -1) translate(-3.000000, -8.500000) " points="6 6.5 3 6.5 4.88498131e-15 10.5"></polyline>
                    <polyline id="Path-11" transform="translate(8.000000, 8.500000) scale(1, -1) translate(-8.000000, -8.500000) " points="6 6.5 10 6.5 6.99919905 10.5"></polyline>
                    <path d="M6.5,6.5 L3.5,10.5 L6.5,6.5 Z" id="Path-11" transform="translate(5.000000, 8.500000) scale(1, -1) translate(-5.000000, -8.500000) "></path>
                    <path d="M18,36 L18,41" id="Path" transform="translate(18.000000, 38.500000) rotate(90.000000) translate(-18.000000, -38.500000) "></path>
                    <polyline id="Path" points="16 19 16 31.3243243 16 38"></polyline>
                    <path d="M20,38.5 L20,48" id="Path"></path>
                    <path d="M15.5,11.5 L15.5,18.5" id="Path" transform="translate(15.500000, 15.500000) rotate(90.000000) translate(-15.500000, -15.500000) "></path>
                </g>
            </g>
        </g>
    </g>
</svg>