<?xml version="1.0" encoding="UTF-8"?>
<svg width="32px" height="48px" viewBox="-3.0 0.0 32 48" version="1.1" xmlns="http://www.w3.org/2000/svg" xmlns:xlink="http://www.w3.org/1999/xlink">
    <!-- Generator: Sketch 52.5 (67469) - http://www.bohemiancoding.com/sketch -->
    <title>transformer-one-ansi</title>
    <desc>Created with Sketch.</desc>
    <g id="Project-Modelling-–-GIS-&amp;-SLD" stroke="none" stroke-width="1" fill="none" fill-rule="evenodd" opacity="1">
        <g id="Artboard" transform="translate(-2403.000000, -1308.000000)" stroke="#0ca919">
            <g id="32-/-sld-/-vertical-/-box-icon-/-normal-copy-11" transform="translate(2400.000000, 1300.000000)">
                <g id="sld-/-ansi-/-transformer1-/-black" transform="translate(4.000000, 8.000000)">
                    <path d="M12,-3.55271368e-15 L12,18" id="Path" fill-rule="nonzero"></path>
                    <path d="M12,30 L12,48" id="Path" fill-rule="nonzero"></path>
                    <path d="M20,21 C19.4666667,19 18.1333333,18 16,18 C13.8666667,18 12.5333333,19 12,21" id="Path-10" stroke-linecap="round" fill-rule="nonzero" transform="translate(16.000000, 19.500000) scale(1, -1) translate(-16.000000, -19.500000) "></path>
                    <path d="M12,21 C11.4666667,19 10.1333333,18 8,18 C5.86666667,18 4.53333333,19 4,21" id="Path-10" stroke-linecap="round" fill-rule="nonzero" transform="translate(8.000000, 19.500000) scale(1, -1) translate(-8.000000, -19.500000) "></path>
                    <path d="M8,21 C7.46666667,19 6.13333333,18 4,18 C1.86666667,18 0.533333333,19 0,21" id="Path-10" stroke-linecap="round" fill-rule="nonzero" transform="translate(4.000000, 19.500000) scale(1, -1) translate(-4.000000, -19.500000) "></path>
                    <path d="M24,21 C23.4666667,19 22.1333333,18 20,18 C17.8666667,18 16.5333333,19 16,21" id="Path-10" stroke-linecap="round" fill-rule="nonzero" transform="translate(20.000000, 19.500000) scale(1, -1) translate(-20.000000, -19.500000) "></path>
                    <path d="M20,30 C19.4666667,28 18.1333333,27 16,27 C13.8666667,27 12.5333333,28 12,30" id="Path-10" stroke-linecap="round" fill-rule="nonzero"></path>
                    <path d="M12,30 C11.4666667,28 10.1333333,27 8,27 C5.86666667,27 4.53333333,28 4,30" id="Path-10" stroke-linecap="round" fill-rule="nonzero"></path>
                    <path d="M8,30 C7.46666667,28 6.13333333,27 4,27 C1.86666667,27 0.533333333,28 0,30" id="Path-10" stroke-linecap="round" fill-rule="nonzero"></path>
                    <path d="M24,30 C23.4666667,28 22.1333333,27 20,27 C17.8666667,27 16.5333333,28 16,30" id="Path-10" stroke-linecap="round" fill-rule="nonzero"></path>
                    <path d="M0,16 L0,17.5" id="Path" stroke-linecap="round" fill-rule="nonzero"></path>
                    <path d="M0,30.5 L0,32" id="Path" stroke-linecap="round" fill-rule="nonzero"></path>
                    <path d="M24,30.5 L24,32" id="Path" stroke-linecap="round" fill-rule="nonzero"></path>
                    <path d="M24,16 L24,17.5" id="Path" stroke-linecap="round" fill-rule="nonzero"></path>
                    <path d="M6,32.5 C7.11562861,32.5 8,31.7040658 8,30.75 C8,29.4609003 6.86580539,27.5 6,27.5 C5.13419461,27.5 4,29.4609003 4,30.75 C4,31.7040658 4.88437139,32.5 6,32.5 Z" id="Oval"></path>
                    <path d="M18,32.5 C19.1156286,32.5 20,31.7040658 20,30.75 C20,29.4609003 18.8658054,27.5 18,27.5 C17.1341946,27.5 16,29.4609003 16,30.75 C16,31.7040658 16.8843714,32.5 18,32.5 Z" id="Oval"></path>
                    <path d="M18,20.5 C19.1156286,20.5 20,19.7040658 20,18.75 C20,17.4609003 18.8658054,15.5 18,15.5 C17.1341946,15.5 16,17.4609003 16,18.75 C16,19.7040658 16.8843714,20.5 18,20.5 Z" id="Oval" transform="translate(18.000000, 18.000000) scale(1, -1) translate(-18.000000, -18.000000) "></path>
                    <path d="M6,20.5 C7.11562861,20.5 8,19.7040658 8,18.75 C8,17.4609003 6.86580539,15.5 6,15.5 C5.13419461,15.5 4,17.4609003 4,18.75 C4,19.7040658 4.88437139,20.5 6,20.5 Z" id="Oval" transform="translate(6.000000, 18.000000) scale(1, -1) translate(-6.000000, -18.000000) "></path>
                </g>
            </g>
        </g>
    </g>
</svg>